<svg width="80" height="80" viewBox="0 0 80 80" fill="none" xmlns="http://www.w3.org/2000/svg">
<g clip-path="url(#clip0_13847_34530)">
<rect width="80" height="80" rx="40" fill="white"/>
<rect width="80" height="80" rx="40" fill="url(#paint0_linear_13847_34530)"/>
<path d="M52 0L52 80" stroke="url(#paint1_linear_13847_34530)" stroke-width="1.5"/>
<path d="M40 0L40 80" stroke="url(#paint2_linear_13847_34530)" stroke-width="1.5"/>
<path d="M40 27L40 41" stroke="url(#paint3_linear_13847_34530)" stroke-width="1.5" stroke-linecap="round"/>
<path d="M52 50L52 64" stroke="url(#paint4_linear_13847_34530)" stroke-width="1.5" stroke-linecap="round"/>
<path d="M40 62L40 79" stroke="url(#paint5_linear_13847_34530)" stroke-width="1.5" stroke-linecap="round"/>
<path d="M46 -2.62269e-07L46 6.99999C46 8.65685 44.6569 10 43 10V10C41.3431 10 40 11.3431 40 13L40 17C40 18.6569 41.3431 20 43 20V20C44.6569 20 46 21.3431 46 23L46 40L46 80" stroke="url(#paint6_linear_13847_34530)" stroke-width="1.5"/>
<path d="M58.0001 -2.62271e-07L58.0001 40L58.0001 57C58.0001 58.6568 56.6569 60 55 60V60C53.3432 60 52 61.3432 52 63L52 67C52 68.6568 53.3432 70 55 70V70C56.6569 70 58.0001 71.3432 58.0001 73L58.0001 80" stroke="url(#paint7_linear_13847_34530)" stroke-width="1.5"/>
<path d="M64 0L64 80" stroke="url(#paint8_linear_13847_34530)" stroke-width="1.5"/>
<path d="M70 0L70 80" stroke="url(#paint9_linear_13847_34530)" stroke-width="1.5"/>
<path d="M76 0L76 80" stroke="url(#paint10_linear_13847_34530)" stroke-width="1.5"/>
<path d="M34 0L34 80" stroke="url(#paint11_linear_13847_34530)" stroke-width="1.5"/>
<path d="M28 0L28 80" stroke="url(#paint12_linear_13847_34530)" stroke-width="1.5"/>
<path d="M22 0L22 17C22 18.6568 23.3432 20 25 20V20C26.6569 20 28 21.3431 28.0001 23L28.0001 25L28 35L28 37C28 38.6569 26.6569 40 25 40V40C23.3432 40 22 41.3431 22 43L22 80" stroke="url(#paint13_linear_13847_34530)" stroke-width="1.5"/>
<path d="M16 0L16 80" stroke="url(#paint14_linear_13847_34530)" stroke-width="1.5"/>
<path d="M10 0L10 80" stroke="url(#paint15_linear_13847_34530)" stroke-width="1.5"/>
<path d="M4 0L4 80" stroke="url(#paint16_linear_13847_34530)" stroke-width="1.5"/>
<circle cx="16" cy="29" r="2.25" fill="white" stroke="#E9F0F9" stroke-width="1.5"/>
<circle cx="16" cy="63" r="2.25" fill="white" stroke="url(#paint17_linear_13847_34530)" stroke-width="1.5"/>
<circle cx="64" cy="43" r="2.25" fill="white" stroke="#E9F0F9" stroke-width="1.5"/>
<path d="M28 55L28 69" stroke="url(#paint18_linear_13847_34530)" stroke-width="1.5" stroke-linecap="round"/>
<path d="M28 9L28 25" stroke="url(#paint19_linear_13847_34530)" stroke-width="1.5" stroke-linecap="round"/>
<path d="M52 20L52 31" stroke="url(#paint20_linear_13847_34530)" stroke-width="1.5" stroke-linecap="round"/>
<g filter="url(#filter0_dd_13847_34530)">
<rect x="22" y="22" width="36" height="36" rx="18" fill="white"/>
<g clip-path="url(#clip1_13847_34530)">
<mask id="mask0_13847_34530" style="mask-type:luminance" maskUnits="userSpaceOnUse" x="26" y="26" width="28" height="28">
<path d="M54 26H26V54H54V26Z" fill="white"/>
</mask>
<g mask="url(#mask0_13847_34530)">
<path d="M26 36.752C26 32.9888 26 31.1063 26.7327 29.6689C27.3767 28.4043 28.4052 27.3767 29.6699 26.7317C31.1063 26 32.9888 26 36.752 26H43.248C47.0112 26 48.8937 26 50.3311 26.7327C51.5957 27.3767 52.6233 28.4052 53.2683 29.6699C54.0009 31.1072 54.0009 32.9888 54.0009 36.7529V43.2489C54.0009 47.0121 54.0009 48.8947 53.2683 50.332C52.6243 51.5967 51.5957 52.6243 50.3311 53.2692C48.8937 54.0019 47.0121 54.0019 43.248 54.0019H36.752C32.9888 54.0019 31.1063 54.0019 29.6689 53.2692C28.4043 52.6252 27.3767 51.5967 26.7317 50.332C26 48.8937 26 47.0112 26 43.248V36.752Z" fill="white"/>
<path d="M44.5584 34.6128C43.751 33.9118 42.7412 33.4629 41.6641 33.3248L41.5932 33.8801C42.5629 34.0042 43.4692 34.4084 44.1916 35.0346L44.5584 34.6118V34.6128ZM41.6641 33.3248C40.587 33.1866 39.4904 33.3649 38.5206 33.8372L38.7661 34.3402C39.6369 33.9165 40.6234 33.755 41.5932 33.8801L41.6641 33.3248ZM38.5206 33.8372C37.5509 34.3094 36.751 35.0533 36.2312 35.9736L36.7184 36.2498C37.1813 35.4313 37.8953 34.7658 38.7661 34.3412L38.5206 33.8381V33.8372ZM36.5168 35.8345C36.2358 35.7916 35.9521 35.7701 35.6674 35.771L35.6693 36.331C35.925 36.331 36.1798 36.3497 36.4328 36.388L36.5168 35.8345ZM35.6684 35.771C32.8385 35.771 30.48 37.8188 30.48 40.405H31.04C31.04 38.1893 33.083 36.331 35.6684 36.331V35.771ZM30.48 40.405C30.48 42.7822 32.4792 44.7348 35.0748 45.0054L35.1326 44.4482C32.7666 44.2018 31.04 42.4425 31.04 40.405H30.48ZM35.0748 45.0054C35.3156 45.0306 35.5582 44.9634 35.7505 44.816L35.4089 44.3717C35.3324 44.4305 35.2334 44.4585 35.1326 44.4482L35.0748 45.0054ZM35.7505 44.816C35.9428 44.6685 36.0688 44.4501 36.0958 44.2093L35.5396 44.1458C35.5302 44.2317 35.4845 44.3138 35.4089 44.3717L35.7505 44.816ZM36.0958 44.2093C36.1229 43.9676 36.0492 43.7277 35.8924 43.542L35.464 43.9022C35.5228 43.9732 35.5489 44.06 35.5396 44.1458L36.0958 44.2093ZM35.8924 43.542C35.7365 43.3562 35.5125 43.2405 35.2717 43.2153L35.2138 43.7725C35.3146 43.7828 35.4042 43.8313 35.464 43.9022L35.8924 43.542ZM35.2596 43.2144C34.4905 43.1696 33.769 42.8541 33.2324 42.3314L32.8413 42.7328C33.476 43.3516 34.3262 43.7212 35.226 43.7734L35.2586 43.2144H35.2596ZM33.2324 42.3314C32.6966 41.8097 32.384 41.1181 32.3513 40.392L31.7922 40.4172C31.8305 41.2889 32.2057 42.114 32.8413 42.7328L33.2324 42.3314ZM32.3522 40.4041C32.3522 38.8837 33.8082 37.5724 35.6824 37.5724V37.0124C33.5796 37.0124 31.7922 38.4992 31.7922 40.4041H32.3522ZM35.6805 37.5724C35.9988 37.5742 36.3142 37.6144 36.6213 37.6928L36.7594 37.1505C36.4085 37.0609 36.0464 37.0142 35.6833 37.0124L35.6805 37.5724ZM36.6213 37.6928C36.8378 37.7478 37.0674 37.7254 37.269 37.6284L37.0264 37.1234C36.9442 37.1626 36.849 37.172 36.7594 37.1496L36.6213 37.6918V37.6928ZM37.269 37.6284C37.4706 37.5313 37.6312 37.3652 37.7161 37.1589L37.199 36.9442C37.1682 37.0198 37.1076 37.0842 37.0254 37.1234L37.2681 37.6284H37.269ZM37.7152 37.1626C38.0082 36.4813 38.529 35.9082 39.201 35.5368L38.9294 35.0468C38.152 35.477 37.5434 36.1425 37.2 36.9414L37.7142 37.1626H37.7152ZM39.201 35.5368C39.873 35.1653 40.6552 35.016 41.427 35.114L41.498 34.5586C40.6104 34.4457 39.7078 34.6174 38.9304 35.0468L39.202 35.5368H39.201ZM41.427 35.114C42.198 35.212 42.912 35.5517 43.457 36.0762L43.8453 35.673C43.2116 35.0626 42.3856 34.6716 41.497 34.5586L41.4261 35.114H41.427ZM43.457 36.0762C44.0021 36.6017 44.3484 37.2821 44.4445 38.012L44.9998 37.9392C44.8869 37.0805 44.48 36.2844 43.8453 35.673L43.457 36.0762ZM44.4445 38.011C44.4744 38.25 44.6013 38.4646 44.7917 38.6112L45.1333 38.1669C45.0568 38.1081 45.011 38.026 44.9998 37.9401L44.4445 38.0101V38.011ZM44.7917 38.6112C44.9821 38.7577 45.2229 38.8258 45.4618 38.8034L45.4105 38.2462C45.3088 38.2556 45.2089 38.2266 45.1324 38.1678L44.7908 38.6121H44.7917V38.6112ZM45.4366 38.8053C47.027 38.8053 48.2161 39.8525 48.2161 41.0136H48.7761C48.7761 39.4418 47.224 38.2453 45.4366 38.2453V38.8053ZM48.2161 41.0136C48.2161 42.1728 47.0149 43.2218 45.4068 43.2218V43.7818C47.2062 43.7818 48.7761 42.5872 48.7761 41.0136H48.2161ZM45.4096 43.2218C45.2864 43.2218 45.1641 43.2433 45.0502 43.289L45.2574 43.8089C45.3041 43.7902 45.3545 43.7809 45.4049 43.7809L45.4096 43.2209V43.2218ZM45.0502 43.289C44.9364 43.3348 44.8318 43.402 44.7441 43.4878L45.1361 43.8882C45.1697 43.8546 45.2117 43.8285 45.2574 43.8098L45.0502 43.29V43.289ZM44.7441 43.4878C44.6564 43.5737 44.5873 43.6764 44.5406 43.7902L45.0596 44.0021C45.0764 43.961 45.1025 43.9218 45.1361 43.8892L44.7441 43.4888V43.4878ZM44.5406 43.7902C44.494 43.9041 44.4725 44.0254 44.4762 44.1486L45.0362 44.1309C45.0362 44.087 45.0428 44.0432 45.0596 44.0021L44.5406 43.7902ZM44.4762 44.144C44.48 44.3866 44.5836 44.6153 44.76 44.7814L45.1445 44.3736C45.0754 44.3082 45.0381 44.2224 45.0372 44.1346L44.4772 44.143L44.4762 44.144ZM44.76 44.7814C44.9364 44.9476 45.1706 45.0381 45.4124 45.0381V44.4781C45.3097 44.4781 45.2136 44.4389 45.1436 44.3736L44.759 44.7814H44.76ZM45.4124 45.0381C47.9352 45.0381 50.08 43.2825 50.08 41.0276H49.52C49.52 42.8914 47.7158 44.4781 45.4124 44.4781V45.0381ZM50.08 41.0248C50.0585 38.921 48.2189 37.269 45.9378 37.0413L45.8818 37.5985C47.9548 37.8048 49.5022 39.2832 49.52 41.0304L50.08 41.0248ZM46.1824 37.2532C45.9332 36.233 45.3657 35.3128 44.5584 34.6109L44.1916 35.0337C44.914 35.6609 45.418 36.4813 45.6382 37.3857L46.1824 37.2522V37.2532ZM36.4748 36.1098L36.4328 36.387L36.6232 36.416L36.7184 36.248L36.4748 36.1098ZM35.2437 43.4934L35.2726 43.2153H35.2596L35.2437 43.4934ZM32.0722 40.405H31.7922V40.4172L32.0722 40.405ZM35.6824 37.2933L35.6842 37.0133V37.2933H35.6824ZM37.4585 37.0544L37.2009 36.9442V36.948L37.4585 37.0553V37.0544ZM44.7217 37.9784L44.9998 37.9429L44.7226 37.9784H44.7217ZM45.4357 38.5272V38.2472H45.4105L45.4357 38.5272ZM45.4068 43.5046L45.4049 43.7846H45.4068V43.5046ZM44.7553 44.1412L45.0353 44.1365V44.1328L44.7553 44.1412ZM49.8 41.0294H50.08V41.0266L49.8 41.0294ZM45.9098 37.3213L45.6382 37.3876L45.6849 37.5798L45.8818 37.5994L45.9098 37.3204V37.3213Z" fill="#0331FC"/>
<path d="M44.3743 34.8246C45.1387 35.4891 45.6745 36.3599 45.9097 37.3213C48.0862 37.5387 49.7802 39.1039 49.7998 41.0285C49.7998 43.0874 47.8258 44.759 45.4122 44.759C45.2395 44.759 45.0743 44.6937 44.9511 44.5779C44.8279 44.4622 44.7579 44.3045 44.7551 44.1402C44.7523 44.0571 44.7673 43.9741 44.799 43.8966C44.8307 43.8191 44.8783 43.7482 44.939 43.6894C44.9997 43.6297 45.0725 43.583 45.1527 43.5513C45.233 43.5195 45.3189 43.5027 45.4066 43.5037C47.1099 43.5037 48.4959 42.3818 48.4959 41.0154C48.4959 39.649 47.1249 38.5271 45.4365 38.5271C45.2657 38.543 45.0958 38.4945 44.9623 38.3918C44.8289 38.2891 44.743 38.1407 44.7225 37.9783C44.6179 37.1841 44.2409 36.4449 43.6519 35.8774C43.063 35.3099 42.293 34.9441 41.4633 34.8386C40.6335 34.7331 39.7907 34.8937 39.0665 35.2941C38.3422 35.6954 37.7766 36.3142 37.4593 37.0543C37.4005 37.1953 37.2903 37.3101 37.1494 37.3782C37.0075 37.4463 36.8451 37.4622 36.6921 37.423C36.3626 37.339 36.0238 37.2951 35.6831 37.2933C33.6951 37.2933 32.073 38.6923 32.073 40.405C32.1085 41.2039 32.4519 41.9618 33.0381 42.5321C33.6242 43.1023 34.4101 43.4449 35.2445 43.4934C35.4153 43.5111 35.5721 43.5933 35.6794 43.7211C35.7867 43.849 35.8371 44.0133 35.8185 44.1766C35.7998 44.3399 35.7139 44.4902 35.5805 44.5929C35.4461 44.6955 35.2753 44.7441 35.1045 44.7263C32.6237 44.4678 30.7607 42.6114 30.7607 40.405C30.7607 38.0045 32.9615 36.051 35.6691 36.051C35.9389 36.051 36.2086 36.0706 36.4755 36.1107C36.9674 35.2418 37.7234 34.5362 38.6437 34.0882C39.5639 33.6402 40.6055 33.4703 41.6294 33.6019C42.6533 33.7335 43.6109 34.1591 44.3753 34.8237H44.3743V34.8246Z" fill="#0331FC"/>
<path d="M41.2685 42.0576C41.4486 41.3856 42.1393 40.9861 42.8113 41.1663C43.4833 41.3464 43.8828 42.0371 43.7026 42.7091L42.9056 45.6845C42.7254 46.3565 42.0348 46.756 41.3628 46.5759C40.6908 46.3957 40.2913 45.7051 40.4714 45.0331L41.2685 42.0576Z" fill="#0331FC"/>
<path d="M37.609 42.8974C37.7891 42.2254 38.4798 41.826 39.1518 42.0061C39.8238 42.1862 40.2232 42.8769 40.0431 43.5489L39.681 44.9013C39.5008 45.5733 38.8102 45.9728 38.1382 45.7926C37.4662 45.6125 37.0667 44.9218 37.2468 44.2498L37.609 42.8974Z" fill="#8198FD"/>
</g>
</g>
</g>
<mask id="path-33-outside-1_13847_34530" maskUnits="userSpaceOnUse" x="42.1665" y="20.166" width="18" height="18" fill="black">
<rect fill="white" x="42.1665" y="20.166" width="18" height="18"/>
<path fill-rule="evenodd" clip-rule="evenodd" d="M50.9998 34.8327C54.2215 34.8327 56.8332 32.221 56.8332 28.9993C56.8332 25.7777 54.2215 23.166 50.9998 23.166C47.7782 23.166 45.1665 25.7777 45.1665 28.9993C45.1665 32.221 47.7782 34.8327 50.9998 34.8327ZM53.8635 27.7797C54.1564 27.4868 54.1564 27.0119 53.8635 26.719C53.5706 26.4261 53.0957 26.4261 52.8028 26.719L50.4165 29.1054L49.7802 28.469C49.4873 28.1761 49.0124 28.1761 48.7195 28.469C48.4266 28.7619 48.4266 29.2368 48.7195 29.5297L49.8862 30.6963C50.0268 30.837 50.2176 30.916 50.4165 30.916C50.6154 30.916 50.8062 30.837 50.9468 30.6963L53.8635 27.7797Z"/>
</mask>
<path fill-rule="evenodd" clip-rule="evenodd" d="M50.9998 34.8327C54.2215 34.8327 56.8332 32.221 56.8332 28.9993C56.8332 25.7777 54.2215 23.166 50.9998 23.166C47.7782 23.166 45.1665 25.7777 45.1665 28.9993C45.1665 32.221 47.7782 34.8327 50.9998 34.8327ZM53.8635 27.7797C54.1564 27.4868 54.1564 27.0119 53.8635 26.719C53.5706 26.4261 53.0957 26.4261 52.8028 26.719L50.4165 29.1054L49.7802 28.469C49.4873 28.1761 49.0124 28.1761 48.7195 28.469C48.4266 28.7619 48.4266 29.2368 48.7195 29.5297L49.8862 30.6963C50.0268 30.837 50.2176 30.916 50.4165 30.916C50.6154 30.916 50.8062 30.837 50.9468 30.6963L53.8635 27.7797Z" fill="#22C55E"/>
<path d="M53.8635 26.719L51.7422 28.8403L51.7422 28.8403L53.8635 26.719ZM53.8635 27.7797L51.7422 25.6584L51.7422 25.6584L53.8635 27.7797ZM52.8028 26.719L54.9242 28.8403L54.9242 28.8403L52.8028 26.719ZM50.4165 29.1054L48.2952 31.2267C48.8578 31.7893 49.6209 32.1054 50.4165 32.1054C51.2122 32.1054 51.9752 31.7893 52.5378 31.2267L50.4165 29.1054ZM49.7802 28.469L51.9015 26.3477L51.9015 26.3477L49.7802 28.469ZM48.7195 28.469L46.5982 26.3477L46.5982 26.3477L48.7195 28.469ZM48.7195 29.5297L46.5982 31.651L46.5982 31.651L48.7195 29.5297ZM49.8862 30.6963L47.7649 32.8177L47.7649 32.8177L49.8862 30.6963ZM50.4165 30.916L50.4165 33.916H50.4165V30.916ZM50.9468 30.6963L53.0682 32.8177L53.0682 32.8177L50.9468 30.6963ZM53.8332 28.9993C53.8332 30.5642 52.5646 31.8327 50.9998 31.8327V37.8327C55.8784 37.8327 59.8332 33.8779 59.8332 28.9993H53.8332ZM50.9998 26.166C52.5646 26.166 53.8332 27.4345 53.8332 28.9993H59.8332C59.8332 24.1208 55.8784 20.166 50.9998 20.166V26.166ZM48.1665 28.9993C48.1665 27.4345 49.435 26.166 50.9998 26.166V20.166C46.1213 20.166 42.1665 24.1208 42.1665 28.9993H48.1665ZM50.9998 31.8327C49.435 31.8327 48.1665 30.5642 48.1665 28.9993H42.1665C42.1665 33.8779 46.1213 37.8327 50.9998 37.8327V31.8327ZM51.7422 28.8403C50.8635 27.9617 50.8635 26.537 51.7422 25.6584L55.9848 29.901C57.4493 28.4365 57.4493 26.0622 55.9848 24.5977L51.7422 28.8403ZM54.9242 28.8403C54.0455 29.719 52.6209 29.719 51.7422 28.8403L55.9848 24.5977C54.5204 23.1332 52.146 23.1332 50.6815 24.5977L54.9242 28.8403ZM52.5378 31.2267L54.9242 28.8403L50.6815 24.5977L48.2952 26.984L52.5378 31.2267ZM47.6588 30.5903L48.2952 31.2267L52.5378 26.984L51.9015 26.3477L47.6588 30.5903ZM50.8408 30.5903C49.9621 31.469 48.5375 31.469 47.6588 30.5903L51.9015 26.3477C50.437 24.8832 48.0627 24.8832 46.5982 26.3477L50.8408 30.5903ZM50.8408 27.4084C51.7195 28.287 51.7195 29.7117 50.8408 30.5903L46.5982 26.3477C45.1337 27.8122 45.1337 30.1865 46.5982 31.651L50.8408 27.4084ZM52.0075 28.575L50.8408 27.4084L46.5982 31.651L47.7649 32.8177L52.0075 28.575ZM50.4165 27.916C51.0132 27.916 51.5855 28.1531 52.0075 28.575L47.7649 32.8177C48.4681 33.5209 49.4219 33.916 50.4165 33.916L50.4165 27.916ZM48.8255 28.575C49.2475 28.1531 49.8198 27.916 50.4165 27.916V33.916C51.4111 33.916 52.3649 33.5209 53.0682 32.8177L48.8255 28.575ZM51.7422 25.6584L48.8255 28.575L53.0682 32.8177L55.9848 29.901L51.7422 25.6584Z" fill="white" mask="url(#path-33-outside-1_13847_34530)"/>
</g>
<rect x="0.5" y="0.5" width="79" height="79" rx="39.5" stroke="#E9F0F9"/>
<defs>
<filter id="filter0_dd_13847_34530" x="19" y="20" width="42" height="42" filterUnits="userSpaceOnUse" color-interpolation-filters="sRGB">
<feFlood flood-opacity="0" result="BackgroundImageFix"/>
<feColorMatrix in="SourceAlpha" type="matrix" values="0 0 0 0 0 0 0 0 0 0 0 0 0 0 0 0 0 0 127 0" result="hardAlpha"/>
<feMorphology radius="1" operator="erode" in="SourceAlpha" result="effect1_dropShadow_13847_34530"/>
<feOffset dy="1"/>
<feGaussianBlur stdDeviation="1"/>
<feComposite in2="hardAlpha" operator="out"/>
<feColorMatrix type="matrix" values="0 0 0 0 0 0 0 0 0 0 0 0 0 0 0 0 0 0 0.1 0"/>
<feBlend mode="normal" in2="BackgroundImageFix" result="effect1_dropShadow_13847_34530"/>
<feColorMatrix in="SourceAlpha" type="matrix" values="0 0 0 0 0 0 0 0 0 0 0 0 0 0 0 0 0 0 127 0" result="hardAlpha"/>
<feOffset dy="1"/>
<feGaussianBlur stdDeviation="1.5"/>
<feComposite in2="hardAlpha" operator="out"/>
<feColorMatrix type="matrix" values="0 0 0 0 0 0 0 0 0 0 0 0 0 0 0 0 0 0 0.1 0"/>
<feBlend mode="normal" in2="effect1_dropShadow_13847_34530" result="effect2_dropShadow_13847_34530"/>
<feBlend mode="normal" in="SourceGraphic" in2="effect2_dropShadow_13847_34530" result="shape"/>
</filter>
<linearGradient id="paint0_linear_13847_34530" x1="40" y1="0" x2="40" y2="80" gradientUnits="userSpaceOnUse">
<stop stop-color="#F8FAFC"/>
<stop offset="1" stop-color="white"/>
</linearGradient>
<linearGradient id="paint1_linear_13847_34530" x1="52.5" y1="-2.18557e-08" x2="52.5" y2="80" gradientUnits="userSpaceOnUse">
<stop stop-color="#E2E8F0" stop-opacity="0"/>
<stop offset="0.48488" stop-color="#E2E8F0"/>
<stop offset="1" stop-color="#E2E8F0" stop-opacity="0"/>
</linearGradient>
<linearGradient id="paint2_linear_13847_34530" x1="40.5" y1="-2.18557e-08" x2="40.5" y2="80" gradientUnits="userSpaceOnUse">
<stop stop-color="#E2E8F0" stop-opacity="0"/>
<stop offset="0.48488" stop-color="#E2E8F0"/>
<stop offset="1" stop-color="#E2E8F0" stop-opacity="0"/>
</linearGradient>
<linearGradient id="paint3_linear_13847_34530" x1="40.5" y1="27" x2="40.5" y2="41" gradientUnits="userSpaceOnUse">
<stop stop-color="#0331FC"/>
<stop offset="1" stop-color="#0331FC" stop-opacity="0"/>
</linearGradient>
<linearGradient id="paint4_linear_13847_34530" x1="52.5" y1="50" x2="52.5" y2="64" gradientUnits="userSpaceOnUse">
<stop stop-color="#0331FC"/>
<stop offset="1" stop-color="#0331FC" stop-opacity="0"/>
</linearGradient>
<linearGradient id="paint5_linear_13847_34530" x1="40.5" y1="62" x2="40.5" y2="76.5" gradientUnits="userSpaceOnUse">
<stop stop-color="#0331FC"/>
<stop offset="1" stop-color="#0331FC" stop-opacity="0"/>
</linearGradient>
<linearGradient id="paint6_linear_13847_34530" x1="46.5" y1="-2.18556e-08" x2="46.5" y2="80" gradientUnits="userSpaceOnUse">
<stop stop-color="#E2E8F0" stop-opacity="0"/>
<stop offset="0.48488" stop-color="#E2E8F0"/>
<stop offset="1" stop-color="#E2E8F0" stop-opacity="0"/>
</linearGradient>
<linearGradient id="paint7_linear_13847_34530" x1="58.5" y1="-2.18559e-08" x2="58.5" y2="80" gradientUnits="userSpaceOnUse">
<stop stop-color="#E2E8F0" stop-opacity="0"/>
<stop offset="0.48488" stop-color="#E2E8F0"/>
<stop offset="1" stop-color="#E2E8F0" stop-opacity="0"/>
</linearGradient>
<linearGradient id="paint8_linear_13847_34530" x1="64.5" y1="-2.18557e-08" x2="64.5" y2="80" gradientUnits="userSpaceOnUse">
<stop stop-color="#E2E8F0" stop-opacity="0"/>
<stop offset="0.48488" stop-color="#E2E8F0"/>
<stop offset="1" stop-color="#E2E8F0" stop-opacity="0"/>
</linearGradient>
<linearGradient id="paint9_linear_13847_34530" x1="70.5" y1="-2.18557e-08" x2="70.5" y2="80" gradientUnits="userSpaceOnUse">
<stop stop-color="#E2E8F0" stop-opacity="0"/>
<stop offset="0.48488" stop-color="#E2E8F0"/>
<stop offset="1" stop-color="#E2E8F0" stop-opacity="0"/>
</linearGradient>
<linearGradient id="paint10_linear_13847_34530" x1="76.5" y1="-2.18557e-08" x2="76.5" y2="80" gradientUnits="userSpaceOnUse">
<stop stop-color="#E2E8F0" stop-opacity="0"/>
<stop offset="0.48488" stop-color="#E2E8F0"/>
<stop offset="1" stop-color="#E2E8F0" stop-opacity="0"/>
</linearGradient>
<linearGradient id="paint11_linear_13847_34530" x1="34.5" y1="-2.18557e-08" x2="34.5" y2="80" gradientUnits="userSpaceOnUse">
<stop stop-color="#E2E8F0" stop-opacity="0"/>
<stop offset="0.48488" stop-color="#E2E8F0"/>
<stop offset="1" stop-color="#E2E8F0" stop-opacity="0"/>
</linearGradient>
<linearGradient id="paint12_linear_13847_34530" x1="28.5" y1="-2.18557e-08" x2="28.5" y2="80" gradientUnits="userSpaceOnUse">
<stop stop-color="#E2E8F0" stop-opacity="0"/>
<stop offset="0.48488" stop-color="#E2E8F0"/>
<stop offset="1" stop-color="#E2E8F0" stop-opacity="0"/>
</linearGradient>
<linearGradient id="paint13_linear_13847_34530" x1="22.5" y1="-2.18528e-08" x2="22.5" y2="80" gradientUnits="userSpaceOnUse">
<stop stop-color="#E2E8F0" stop-opacity="0"/>
<stop offset="0.48488" stop-color="#E2E8F0"/>
<stop offset="1" stop-color="#E2E8F0" stop-opacity="0"/>
</linearGradient>
<linearGradient id="paint14_linear_13847_34530" x1="16.5" y1="-2.18557e-08" x2="16.5" y2="80" gradientUnits="userSpaceOnUse">
<stop stop-color="#E2E8F0" stop-opacity="0"/>
<stop offset="0.48488" stop-color="#E2E8F0"/>
<stop offset="1" stop-color="#E2E8F0" stop-opacity="0"/>
</linearGradient>
<linearGradient id="paint15_linear_13847_34530" x1="10.5" y1="-2.18557e-08" x2="10.5" y2="80" gradientUnits="userSpaceOnUse">
<stop stop-color="#E2E8F0" stop-opacity="0"/>
<stop offset="0.48488" stop-color="#E2E8F0"/>
<stop offset="1" stop-color="#E2E8F0" stop-opacity="0"/>
</linearGradient>
<linearGradient id="paint16_linear_13847_34530" x1="4.5" y1="-2.18557e-08" x2="4.5" y2="80" gradientUnits="userSpaceOnUse">
<stop stop-color="#E2E8F0" stop-opacity="0"/>
<stop offset="0.48488" stop-color="#E2E8F0"/>
<stop offset="1" stop-color="#E2E8F0" stop-opacity="0"/>
</linearGradient>
<linearGradient id="paint17_linear_13847_34530" x1="16" y1="60" x2="16" y2="66" gradientUnits="userSpaceOnUse">
<stop stop-color="#E2E8F0"/>
<stop offset="1" stop-color="#E2E8F0" stop-opacity="0.3"/>
</linearGradient>
<linearGradient id="paint18_linear_13847_34530" x1="28.5" y1="55" x2="28.5" y2="69" gradientUnits="userSpaceOnUse">
<stop stop-color="#0331FC"/>
<stop offset="1" stop-color="#0331FC" stop-opacity="0"/>
</linearGradient>
<linearGradient id="paint19_linear_13847_34530" x1="28.5" y1="9" x2="28.5" y2="25" gradientUnits="userSpaceOnUse">
<stop stop-color="#0331FC"/>
<stop offset="1" stop-color="#0331FC" stop-opacity="0"/>
</linearGradient>
<linearGradient id="paint20_linear_13847_34530" x1="52.5" y1="20" x2="52.5" y2="31" gradientUnits="userSpaceOnUse">
<stop stop-color="#0331FC"/>
<stop offset="1" stop-color="#0331FC" stop-opacity="0"/>
</linearGradient>
<clipPath id="clip0_13847_34530">
<rect width="80" height="80" rx="40" fill="white"/>
</clipPath>
<clipPath id="clip1_13847_34530">
<rect width="28" height="28" fill="white" transform="translate(26 26)"/>
</clipPath>
</defs>
</svg>
