<svg width="369" height="167" viewBox="0 0 369 167" fill="none" xmlns="http://www.w3.org/2000/svg">
<g clip-path="url(#clip0_13830_8097)">
<g opacity="0.5">
<path d="M-7.8 45.5H103.8C107.169 45.5 109.665 45.5004 111.641 45.6618C113.611 45.8228 115.02 46.1414 116.221 46.7534C118.385 47.856 120.144 49.6152 121.247 51.7791C121.859 52.9803 122.177 54.389 122.338 56.3591C122.5 58.3351 122.5 60.8314 122.5 64.2V105.8C122.5 109.169 122.5 111.665 122.338 113.641C122.177 115.611 121.859 117.02 121.247 118.221C120.144 120.385 118.385 122.144 116.221 123.247C115.02 123.859 113.611 124.177 111.641 124.338C109.665 124.5 107.169 124.5 103.8 124.5H-7.8C-11.1686 124.5 -13.6649 124.5 -15.6409 124.338C-17.611 124.177 -19.0197 123.859 -20.2209 123.247C-22.3848 122.144 -24.144 120.385 -25.2466 118.221C-25.8586 117.02 -26.1772 115.611 -26.3382 113.641C-26.4996 111.665 -26.5 109.169 -26.5 105.8V64.2C-26.5 60.8314 -26.4996 58.3351 -26.3382 56.3591C-26.1772 54.389 -25.8586 52.9803 -25.2466 51.7791C-24.144 49.6152 -22.3848 47.856 -20.2209 46.7534C-19.0197 46.1414 -17.611 45.8228 -15.6409 45.6618C-13.6649 45.5004 -11.1686 45.5 -7.8 45.5Z" fill="white"/>
<path d="M-7.8 45.5H103.8C107.169 45.5 109.665 45.5004 111.641 45.6618C113.611 45.8228 115.02 46.1414 116.221 46.7534C118.385 47.856 120.144 49.6152 121.247 51.7791C121.859 52.9803 122.177 54.389 122.338 56.3591C122.5 58.3351 122.5 60.8314 122.5 64.2V105.8C122.5 109.169 122.5 111.665 122.338 113.641C122.177 115.611 121.859 117.02 121.247 118.221C120.144 120.385 118.385 122.144 116.221 123.247C115.02 123.859 113.611 124.177 111.641 124.338C109.665 124.5 107.169 124.5 103.8 124.5H-7.8C-11.1686 124.5 -13.6649 124.5 -15.6409 124.338C-17.611 124.177 -19.0197 123.859 -20.2209 123.247C-22.3848 122.144 -24.144 120.385 -25.2466 118.221C-25.8586 117.02 -26.1772 115.611 -26.3382 113.641C-26.4996 111.665 -26.5 109.169 -26.5 105.8V64.2C-26.5 60.8314 -26.4996 58.3351 -26.3382 56.3591C-26.1772 54.389 -25.8586 52.9803 -25.2466 51.7791C-24.144 49.6152 -22.3848 47.856 -20.2209 46.7534C-19.0197 46.1414 -17.611 45.8228 -15.6409 45.6618C-13.6649 45.5004 -11.1686 45.5 -7.8 45.5Z" stroke="#E9F0F9"/>
</g>
<g opacity="0.5">
<path d="M-53.8 -42.5H57.8C61.1686 -42.5 63.6649 -42.4996 65.6409 -42.3382C67.611 -42.1772 69.0197 -41.8586 70.2209 -41.2466C72.3848 -40.144 74.144 -38.3848 75.2466 -36.2209C75.8586 -35.0197 76.1772 -33.611 76.3382 -31.6409C76.4996 -29.6649 76.5 -27.1686 76.5 -23.8V17.8C76.5 21.1686 76.4996 23.6649 76.3382 25.6409C76.1772 27.611 75.8586 29.0197 75.2466 30.2209C74.144 32.3848 72.3848 34.144 70.2209 35.2466C69.0197 35.8586 67.611 36.1772 65.6409 36.3382C63.6649 36.4996 61.1686 36.5 57.8 36.5H-53.8C-57.1686 36.5 -59.6649 36.4996 -61.6409 36.3382C-63.611 36.1772 -65.0197 35.8586 -66.2209 35.2466C-68.3848 34.144 -70.144 32.3848 -71.2466 30.2209C-71.8586 29.0197 -72.1772 27.611 -72.3382 25.6409C-72.4996 23.6649 -72.5 21.1686 -72.5 17.8V-23.8C-72.5 -27.1686 -72.4996 -29.6649 -72.3382 -31.6409C-72.1772 -33.611 -71.8586 -35.0197 -71.2466 -36.2209C-70.144 -38.3848 -68.3848 -40.144 -66.2209 -41.2466C-65.0197 -41.8586 -63.611 -42.1772 -61.6409 -42.3382C-59.6649 -42.4996 -57.1686 -42.5 -53.8 -42.5Z" fill="white"/>
<path d="M-53.8 -42.5H57.8C61.1686 -42.5 63.6649 -42.4996 65.6409 -42.3382C67.611 -42.1772 69.0197 -41.8586 70.2209 -41.2466C72.3848 -40.144 74.144 -38.3848 75.2466 -36.2209C75.8586 -35.0197 76.1772 -33.611 76.3382 -31.6409C76.4996 -29.6649 76.5 -27.1686 76.5 -23.8V17.8C76.5 21.1686 76.4996 23.6649 76.3382 25.6409C76.1772 27.611 75.8586 29.0197 75.2466 30.2209C74.144 32.3848 72.3848 34.144 70.2209 35.2466C69.0197 35.8586 67.611 36.1772 65.6409 36.3382C63.6649 36.4996 61.1686 36.5 57.8 36.5H-53.8C-57.1686 36.5 -59.6649 36.4996 -61.6409 36.3382C-63.611 36.1772 -65.0197 35.8586 -66.2209 35.2466C-68.3848 34.144 -70.144 32.3848 -71.2466 30.2209C-71.8586 29.0197 -72.1772 27.611 -72.3382 25.6409C-72.4996 23.6649 -72.5 21.1686 -72.5 17.8V-23.8C-72.5 -27.1686 -72.4996 -29.6649 -72.3382 -31.6409C-72.1772 -33.611 -71.8586 -35.0197 -71.2466 -36.2209C-70.144 -38.3848 -68.3848 -40.144 -66.2209 -41.2466C-65.0197 -41.8586 -63.611 -42.1772 -61.6409 -42.3382C-59.6649 -42.4996 -57.1686 -42.5 -53.8 -42.5Z" stroke="#E9F0F9"/>
</g>
<g opacity="0.5">
<path d="M-67.8 133.5H43.8C47.1686 133.5 49.6649 133.5 51.6409 133.662C53.611 133.823 55.0197 134.141 56.2209 134.753C58.3848 135.856 60.144 137.615 61.2466 139.779C61.8586 140.98 62.1772 142.389 62.3382 144.359C62.4996 146.335 62.5 148.831 62.5 152.2V193.8C62.5 197.169 62.4996 199.665 62.3382 201.641C62.1772 203.611 61.8586 205.02 61.2466 206.221C60.144 208.385 58.3848 210.144 56.2209 211.247C55.0197 211.859 53.611 212.177 51.6409 212.338C49.6649 212.5 47.1686 212.5 43.8 212.5H-67.8C-71.1686 212.5 -73.6649 212.5 -75.6409 212.338C-77.611 212.177 -79.0197 211.859 -80.2209 211.247C-82.3848 210.144 -84.144 208.385 -85.2466 206.221C-85.8586 205.02 -86.1772 203.611 -86.3382 201.641C-86.4996 199.665 -86.5 197.169 -86.5 193.8V152.2C-86.5 148.831 -86.4996 146.335 -86.3382 144.359C-86.1772 142.389 -85.8586 140.98 -85.2466 139.779C-84.144 137.615 -82.3848 135.856 -80.2209 134.753C-79.0197 134.141 -77.611 133.823 -75.6409 133.662C-73.6649 133.5 -71.1686 133.5 -67.8 133.5Z" fill="white"/>
<path d="M-67.8 133.5H43.8C47.1686 133.5 49.6649 133.5 51.6409 133.662C53.611 133.823 55.0197 134.141 56.2209 134.753C58.3848 135.856 60.144 137.615 61.2466 139.779C61.8586 140.98 62.1772 142.389 62.3382 144.359C62.4996 146.335 62.5 148.831 62.5 152.2V193.8C62.5 197.169 62.4996 199.665 62.3382 201.641C62.1772 203.611 61.8586 205.02 61.2466 206.221C60.144 208.385 58.3848 210.144 56.2209 211.247C55.0197 211.859 53.611 212.177 51.6409 212.338C49.6649 212.5 47.1686 212.5 43.8 212.5H-67.8C-71.1686 212.5 -73.6649 212.5 -75.6409 212.338C-77.611 212.177 -79.0197 211.859 -80.2209 211.247C-82.3848 210.144 -84.144 208.385 -85.2466 206.221C-85.8586 205.02 -86.1772 203.611 -86.3382 201.641C-86.4996 199.665 -86.5 197.169 -86.5 193.8V152.2C-86.5 148.831 -86.4996 146.335 -86.3382 144.359C-86.1772 142.389 -85.8586 140.98 -85.2466 139.779C-84.144 137.615 -82.3848 135.856 -80.2209 134.753C-79.0197 134.141 -77.611 133.823 -75.6409 133.662C-73.6649 133.5 -71.1686 133.5 -67.8 133.5Z" stroke="#E9F0F9"/>
</g>
<path d="M150.2 45.5H261.8C265.169 45.5 267.665 45.5004 269.641 45.6618C271.611 45.8228 273.02 46.1414 274.221 46.7534C276.385 47.856 278.144 49.6152 279.247 51.7791C279.859 52.9803 280.177 54.389 280.338 56.3591C280.5 58.3351 280.5 60.8314 280.5 64.2V105.8C280.5 109.169 280.5 111.665 280.338 113.641C280.177 115.611 279.859 117.02 279.247 118.221C278.144 120.385 276.385 122.144 274.221 123.247C273.02 123.859 271.611 124.177 269.641 124.338C267.665 124.5 265.169 124.5 261.8 124.5H150.2C146.831 124.5 144.335 124.5 142.359 124.338C140.389 124.177 138.98 123.859 137.779 123.247C135.615 122.144 133.856 120.385 132.753 118.221C132.141 117.02 131.823 115.611 131.662 113.641C131.5 111.665 131.5 109.169 131.5 105.8V64.2C131.5 60.8314 131.5 58.3351 131.662 56.3591C131.823 54.389 132.141 52.9803 132.753 51.7791C133.856 49.6152 135.615 47.856 137.779 46.7534C138.98 46.1414 140.389 45.8228 142.359 45.6618C144.335 45.5004 146.831 45.5 150.2 45.5Z" fill="white"/>
<path d="M150.2 45.5H261.8C265.169 45.5 267.665 45.5004 269.641 45.6618C271.611 45.8228 273.02 46.1414 274.221 46.7534C276.385 47.856 278.144 49.6152 279.247 51.7791C279.859 52.9803 280.177 54.389 280.338 56.3591C280.5 58.3351 280.5 60.8314 280.5 64.2V105.8C280.5 109.169 280.5 111.665 280.338 113.641C280.177 115.611 279.859 117.02 279.247 118.221C278.144 120.385 276.385 122.144 274.221 123.247C273.02 123.859 271.611 124.177 269.641 124.338C267.665 124.5 265.169 124.5 261.8 124.5H150.2C146.831 124.5 144.335 124.5 142.359 124.338C140.389 124.177 138.98 123.859 137.779 123.247C135.615 122.144 133.856 120.385 132.753 118.221C132.141 117.02 131.823 115.611 131.662 113.641C131.5 111.665 131.5 109.169 131.5 105.8V64.2C131.5 60.8314 131.5 58.3351 131.662 56.3591C131.823 54.389 132.141 52.9803 132.753 51.7791C133.856 49.6152 135.615 47.856 137.779 46.7534C138.98 46.1414 140.389 45.8228 142.359 45.6618C144.335 45.5004 146.831 45.5 150.2 45.5Z" stroke="#E9F0F9"/>
<path d="M143 81C143 79.8954 143.895 79 145 79H216C217.105 79 218 79.8954 218 81V81C218 82.1046 217.105 83 216 83H145C143.895 83 143 82.1046 143 81V81Z" fill="#F1F5F9"/>
<path d="M143 59C143 57.8954 143.895 57 145 57H165C166.105 57 167 57.8954 167 59V59C167 60.1046 166.105 61 165 61H145C143.895 61 143 60.1046 143 59V59Z" fill="#F1F5F9"/>
<path d="M143 91C143 89.8954 143.895 89 145 89H246C247.105 89 248 89.8954 248 91V91C248 92.1046 247.105 93 246 93H145C143.895 93 143 92.1046 143 91V91Z" fill="#F1F5F9"/>
<g opacity="0.5">
<path d="M104.2 -42.5H215.8C219.169 -42.5 221.665 -42.4996 223.641 -42.3382C225.611 -42.1772 227.02 -41.8586 228.221 -41.2466C230.385 -40.144 232.144 -38.3848 233.247 -36.2209C233.859 -35.0197 234.177 -33.611 234.338 -31.6409C234.5 -29.6649 234.5 -27.1686 234.5 -23.8V17.8C234.5 21.1686 234.5 23.6649 234.338 25.6409C234.177 27.611 233.859 29.0197 233.247 30.2209C232.144 32.3848 230.385 34.144 228.221 35.2466C227.02 35.8586 225.611 36.1772 223.641 36.3382C221.665 36.4996 219.169 36.5 215.8 36.5H104.2C100.831 36.5 98.3351 36.4996 96.3591 36.3382C94.389 36.1772 92.9803 35.8586 91.7791 35.2466C89.6152 34.144 87.856 32.3848 86.7534 30.2209C86.1414 29.0197 85.8228 27.611 85.6618 25.6409C85.5004 23.6649 85.5 21.1686 85.5 17.8V-23.8C85.5 -27.1686 85.5004 -29.6649 85.6618 -31.6409C85.8228 -33.611 86.1414 -35.0197 86.7534 -36.2209C87.856 -38.3848 89.6152 -40.144 91.7791 -41.2466C92.9803 -41.8586 94.389 -42.1772 96.3591 -42.3382C98.3351 -42.4996 100.831 -42.5 104.2 -42.5Z" fill="white"/>
<path d="M104.2 -42.5H215.8C219.169 -42.5 221.665 -42.4996 223.641 -42.3382C225.611 -42.1772 227.02 -41.8586 228.221 -41.2466C230.385 -40.144 232.144 -38.3848 233.247 -36.2209C233.859 -35.0197 234.177 -33.611 234.338 -31.6409C234.5 -29.6649 234.5 -27.1686 234.5 -23.8V17.8C234.5 21.1686 234.5 23.6649 234.338 25.6409C234.177 27.611 233.859 29.0197 233.247 30.2209C232.144 32.3848 230.385 34.144 228.221 35.2466C227.02 35.8586 225.611 36.1772 223.641 36.3382C221.665 36.4996 219.169 36.5 215.8 36.5H104.2C100.831 36.5 98.3351 36.4996 96.3591 36.3382C94.389 36.1772 92.9803 35.8586 91.7791 35.2466C89.6152 34.144 87.856 32.3848 86.7534 30.2209C86.1414 29.0197 85.8228 27.611 85.6618 25.6409C85.5004 23.6649 85.5 21.1686 85.5 17.8V-23.8C85.5 -27.1686 85.5004 -29.6649 85.6618 -31.6409C85.8228 -33.611 86.1414 -35.0197 86.7534 -36.2209C87.856 -38.3848 89.6152 -40.144 91.7791 -41.2466C92.9803 -41.8586 94.389 -42.1772 96.3591 -42.3382C98.3351 -42.4996 100.831 -42.5 104.2 -42.5Z" stroke="#E9F0F9"/>
</g>
<g opacity="0.5">
<path d="M90.2 133.5H201.8C205.169 133.5 207.665 133.5 209.641 133.662C211.611 133.823 213.02 134.141 214.221 134.753C216.385 135.856 218.144 137.615 219.247 139.779C219.859 140.98 220.177 142.389 220.338 144.359C220.5 146.335 220.5 148.831 220.5 152.2V193.8C220.5 197.169 220.5 199.665 220.338 201.641C220.177 203.611 219.859 205.02 219.247 206.221C218.144 208.385 216.385 210.144 214.221 211.247C213.02 211.859 211.611 212.177 209.641 212.338C207.665 212.5 205.169 212.5 201.8 212.5H90.2C86.8314 212.5 84.3351 212.5 82.3591 212.338C80.389 212.177 78.9803 211.859 77.7791 211.247C75.6152 210.144 73.856 208.385 72.7534 206.221C72.1414 205.02 71.8228 203.611 71.6618 201.641C71.5004 199.665 71.5 197.169 71.5 193.8V152.2C71.5 148.831 71.5004 146.335 71.6618 144.359C71.8228 142.389 72.1414 140.98 72.7534 139.779C73.856 137.615 75.6152 135.856 77.7791 134.753C78.9803 134.141 80.389 133.823 82.3591 133.662C84.3351 133.5 86.8314 133.5 90.2 133.5Z" fill="white"/>
<path d="M90.2 133.5H201.8C205.169 133.5 207.665 133.5 209.641 133.662C211.611 133.823 213.02 134.141 214.221 134.753C216.385 135.856 218.144 137.615 219.247 139.779C219.859 140.98 220.177 142.389 220.338 144.359C220.5 146.335 220.5 148.831 220.5 152.2V193.8C220.5 197.169 220.5 199.665 220.338 201.641C220.177 203.611 219.859 205.02 219.247 206.221C218.144 208.385 216.385 210.144 214.221 211.247C213.02 211.859 211.611 212.177 209.641 212.338C207.665 212.5 205.169 212.5 201.8 212.5H90.2C86.8314 212.5 84.3351 212.5 82.3591 212.338C80.389 212.177 78.9803 211.859 77.7791 211.247C75.6152 210.144 73.856 208.385 72.7534 206.221C72.1414 205.02 71.8228 203.611 71.6618 201.641C71.5004 199.665 71.5 197.169 71.5 193.8V152.2C71.5 148.831 71.5004 146.335 71.6618 144.359C71.8228 142.389 72.1414 140.98 72.7534 139.779C73.856 137.615 75.6152 135.856 77.7791 134.753C78.9803 134.141 80.389 133.823 82.3591 133.662C84.3351 133.5 86.8314 133.5 90.2 133.5Z" stroke="#E9F0F9"/>
</g>
<g opacity="0.5">
<path d="M308.2 45.5H419.8C423.169 45.5 425.665 45.5004 427.641 45.6618C429.611 45.8228 431.02 46.1414 432.221 46.7534C434.385 47.856 436.144 49.6152 437.247 51.7791C437.859 52.9803 438.177 54.389 438.338 56.3591C438.5 58.3351 438.5 60.8314 438.5 64.2V105.8C438.5 109.169 438.5 111.665 438.338 113.641C438.177 115.611 437.859 117.02 437.247 118.221C436.144 120.385 434.385 122.144 432.221 123.247C431.02 123.859 429.611 124.177 427.641 124.338C425.665 124.5 423.169 124.5 419.8 124.5H308.2C304.831 124.5 302.335 124.5 300.359 124.338C298.389 124.177 296.98 123.859 295.779 123.247C293.615 122.144 291.856 120.385 290.753 118.221C290.141 117.02 289.823 115.611 289.662 113.641C289.5 111.665 289.5 109.169 289.5 105.8V64.2C289.5 60.8314 289.5 58.3351 289.662 56.3591C289.823 54.389 290.141 52.9803 290.753 51.7791C291.856 49.6152 293.615 47.856 295.779 46.7534C296.98 46.1414 298.389 45.8228 300.359 45.6618C302.335 45.5004 304.831 45.5 308.2 45.5Z" fill="white"/>
<path d="M308.2 45.5H419.8C423.169 45.5 425.665 45.5004 427.641 45.6618C429.611 45.8228 431.02 46.1414 432.221 46.7534C434.385 47.856 436.144 49.6152 437.247 51.7791C437.859 52.9803 438.177 54.389 438.338 56.3591C438.5 58.3351 438.5 60.8314 438.5 64.2V105.8C438.5 109.169 438.5 111.665 438.338 113.641C438.177 115.611 437.859 117.02 437.247 118.221C436.144 120.385 434.385 122.144 432.221 123.247C431.02 123.859 429.611 124.177 427.641 124.338C425.665 124.5 423.169 124.5 419.8 124.5H308.2C304.831 124.5 302.335 124.5 300.359 124.338C298.389 124.177 296.98 123.859 295.779 123.247C293.615 122.144 291.856 120.385 290.753 118.221C290.141 117.02 289.823 115.611 289.662 113.641C289.5 111.665 289.5 109.169 289.5 105.8V64.2C289.5 60.8314 289.5 58.3351 289.662 56.3591C289.823 54.389 290.141 52.9803 290.753 51.7791C291.856 49.6152 293.615 47.856 295.779 46.7534C296.98 46.1414 298.389 45.8228 300.359 45.6618C302.335 45.5004 304.831 45.5 308.2 45.5Z" stroke="#E9F0F9"/>
</g>
<g opacity="0.5">
<path d="M262.2 -42.5H373.8C377.169 -42.5 379.665 -42.4996 381.641 -42.3382C383.611 -42.1772 385.02 -41.8586 386.221 -41.2466C388.385 -40.144 390.144 -38.3848 391.247 -36.2209C391.859 -35.0197 392.177 -33.611 392.338 -31.6409C392.5 -29.6649 392.5 -27.1686 392.5 -23.8V17.8C392.5 21.1686 392.5 23.6649 392.338 25.6409C392.177 27.611 391.859 29.0197 391.247 30.2209C390.144 32.3848 388.385 34.144 386.221 35.2466C385.02 35.8586 383.611 36.1772 381.641 36.3382C379.665 36.4996 377.169 36.5 373.8 36.5H262.2C258.831 36.5 256.335 36.4996 254.359 36.3382C252.389 36.1772 250.98 35.8586 249.779 35.2466C247.615 34.144 245.856 32.3848 244.753 30.2209C244.141 29.0197 243.823 27.611 243.662 25.6409C243.5 23.6649 243.5 21.1686 243.5 17.8V-23.8C243.5 -27.1686 243.5 -29.6649 243.662 -31.6409C243.823 -33.611 244.141 -35.0197 244.753 -36.2209C245.856 -38.3848 247.615 -40.144 249.779 -41.2466C250.98 -41.8586 252.389 -42.1772 254.359 -42.3382C256.335 -42.4996 258.831 -42.5 262.2 -42.5Z" fill="white"/>
<path d="M262.2 -42.5H373.8C377.169 -42.5 379.665 -42.4996 381.641 -42.3382C383.611 -42.1772 385.02 -41.8586 386.221 -41.2466C388.385 -40.144 390.144 -38.3848 391.247 -36.2209C391.859 -35.0197 392.177 -33.611 392.338 -31.6409C392.5 -29.6649 392.5 -27.1686 392.5 -23.8V17.8C392.5 21.1686 392.5 23.6649 392.338 25.6409C392.177 27.611 391.859 29.0197 391.247 30.2209C390.144 32.3848 388.385 34.144 386.221 35.2466C385.02 35.8586 383.611 36.1772 381.641 36.3382C379.665 36.4996 377.169 36.5 373.8 36.5H262.2C258.831 36.5 256.335 36.4996 254.359 36.3382C252.389 36.1772 250.98 35.8586 249.779 35.2466C247.615 34.144 245.856 32.3848 244.753 30.2209C244.141 29.0197 243.823 27.611 243.662 25.6409C243.5 23.6649 243.5 21.1686 243.5 17.8V-23.8C243.5 -27.1686 243.5 -29.6649 243.662 -31.6409C243.823 -33.611 244.141 -35.0197 244.753 -36.2209C245.856 -38.3848 247.615 -40.144 249.779 -41.2466C250.98 -41.8586 252.389 -42.1772 254.359 -42.3382C256.335 -42.4996 258.831 -42.5 262.2 -42.5Z" stroke="#E9F0F9"/>
</g>
<g opacity="0.5">
<path d="M248.2 133.5H359.8C363.169 133.5 365.665 133.5 367.641 133.662C369.611 133.823 371.02 134.141 372.221 134.753C374.385 135.856 376.144 137.615 377.247 139.779C377.859 140.98 378.177 142.389 378.338 144.359C378.5 146.335 378.5 148.831 378.5 152.2V193.8C378.5 197.169 378.5 199.665 378.338 201.641C378.177 203.611 377.859 205.02 377.247 206.221C376.144 208.385 374.385 210.144 372.221 211.247C371.02 211.859 369.611 212.177 367.641 212.338C365.665 212.5 363.169 212.5 359.8 212.5H248.2C244.831 212.5 242.335 212.5 240.359 212.338C238.389 212.177 236.98 211.859 235.779 211.247C233.615 210.144 231.856 208.385 230.753 206.221C230.141 205.02 229.823 203.611 229.662 201.641C229.5 199.665 229.5 197.169 229.5 193.8V152.2C229.5 148.831 229.5 146.335 229.662 144.359C229.823 142.389 230.141 140.98 230.753 139.779C231.856 137.615 233.615 135.856 235.779 134.753C236.98 134.141 238.389 133.823 240.359 133.662C242.335 133.5 244.831 133.5 248.2 133.5Z" fill="white"/>
<path d="M248.2 133.5H359.8C363.169 133.5 365.665 133.5 367.641 133.662C369.611 133.823 371.02 134.141 372.221 134.753C374.385 135.856 376.144 137.615 377.247 139.779C377.859 140.98 378.177 142.389 378.338 144.359C378.5 146.335 378.5 148.831 378.5 152.2V193.8C378.5 197.169 378.5 199.665 378.338 201.641C378.177 203.611 377.859 205.02 377.247 206.221C376.144 208.385 374.385 210.144 372.221 211.247C371.02 211.859 369.611 212.177 367.641 212.338C365.665 212.5 363.169 212.5 359.8 212.5H248.2C244.831 212.5 242.335 212.5 240.359 212.338C238.389 212.177 236.98 211.859 235.779 211.247C233.615 210.144 231.856 208.385 230.753 206.221C230.141 205.02 229.823 203.611 229.662 201.641C229.5 199.665 229.5 197.169 229.5 193.8V152.2C229.5 148.831 229.5 146.335 229.662 144.359C229.823 142.389 230.141 140.98 230.753 139.779C231.856 137.615 233.615 135.856 235.779 134.753C236.98 134.141 238.389 133.823 240.359 133.662C242.335 133.5 244.831 133.5 248.2 133.5Z" stroke="#E9F0F9"/>
</g>
</g>
<defs>
<clipPath id="clip0_13830_8097">
<rect width="369" height="167" fill="white"/>
</clipPath>
</defs>
</svg>
