<svg width="369" height="167" viewBox="0 0 369 167" fill="none" xmlns="http://www.w3.org/2000/svg">
<g opacity="0.42" filter="url(#filter0_d_13830_8088)">
<rect x="76" y="100" width="217" height="28" rx="12" fill="white"/>
<rect x="76.5" y="100.5" width="216" height="27" rx="11.5" stroke="#F1F5F9"/>
</g>
<g opacity="0.6" filter="url(#filter1_d_13830_8088)">
<rect x="61" y="84" width="247" height="32" rx="12" fill="white"/>
<rect x="61.5" y="84.5" width="246" height="31" rx="11.5" stroke="#E2E8F0"/>
</g>
<g filter="url(#filter2_d_13830_8088)">
<rect x="49" y="50" width="270" height="52" rx="12" fill="white"/>
<rect x="49.5" y="50.5" width="269" height="51" rx="11.5" stroke="#E2E8F0"/>
<path d="M71.538 73.776H72.658L69.074 82.582C68.99 82.7873 68.8967 82.9647 68.794 83.114C68.6913 83.2727 68.57 83.3987 68.43 83.492C68.29 83.5947 68.122 83.6693 67.926 83.716C67.73 83.772 67.4967 83.8 67.226 83.8H66.162V82.848H67.842L68.654 80.86L65.742 73.776H66.89L68.108 76.8L69.186 79.544H69.242L70.32 76.8L71.538 73.776ZM77.5945 81.168C77.0905 81.168 76.6332 81.0793 76.2225 80.902C75.8212 80.7247 75.4759 80.4727 75.1865 80.146C74.9065 79.81 74.6919 79.4133 74.5425 78.956C74.3932 78.4893 74.3185 77.9667 74.3185 77.388C74.3185 76.8187 74.3932 76.3007 74.5425 75.834C74.6919 75.3673 74.9065 74.9707 75.1865 74.644C75.4759 74.308 75.8212 74.0513 76.2225 73.874C76.6332 73.6967 77.0905 73.608 77.5945 73.608C78.0985 73.608 78.5512 73.6967 78.9525 73.874C79.3632 74.0513 79.7085 74.308 79.9885 74.644C80.2779 74.9707 80.4972 75.3673 80.6465 75.834C80.7959 76.3007 80.8705 76.8187 80.8705 77.388C80.8705 77.9667 80.7959 78.4893 80.6465 78.956C80.4972 79.4133 80.2779 79.81 79.9885 80.146C79.7085 80.4727 79.3632 80.7247 78.9525 80.902C78.5512 81.0793 78.0985 81.168 77.5945 81.168ZM77.5945 80.202C78.2199 80.202 78.7239 80.0153 79.1065 79.642C79.4892 79.2687 79.6805 78.69 79.6805 77.906V76.87C79.6805 76.086 79.4892 75.5073 79.1065 75.134C78.7239 74.7607 78.2199 74.574 77.5945 74.574C76.9692 74.574 76.4652 74.7607 76.0825 75.134C75.6999 75.5073 75.5085 76.086 75.5085 76.87V77.906C75.5085 78.69 75.6999 79.2687 76.0825 79.642C76.4652 80.0153 76.9692 80.202 77.5945 80.202ZM87.6971 79.824H87.6411C87.5664 80.0013 87.4731 80.174 87.3611 80.342C87.2491 80.5007 87.1091 80.6407 86.9411 80.762C86.7824 80.8833 86.5911 80.9813 86.3671 81.056C86.1431 81.1307 85.8817 81.168 85.5831 81.168C84.8271 81.168 84.2204 80.93 83.7631 80.454C83.3057 79.9687 83.0771 79.2873 83.0771 78.41V73.776H84.1971V78.214C84.1971 78.8767 84.3417 79.3713 84.6311 79.698C84.9204 80.0153 85.3451 80.174 85.9051 80.174C86.1291 80.174 86.3484 80.146 86.5631 80.09C86.7777 80.034 86.9691 79.95 87.1371 79.838C87.3051 79.726 87.4404 79.586 87.5431 79.418C87.6457 79.2407 87.6971 79.0307 87.6971 78.788V73.776H88.8171V81H87.6971V79.824ZM99.8381 82.932L104.71 70.36H105.718L100.846 82.932H99.8381ZM122.297 81C121.859 81 121.546 80.888 121.359 80.664C121.173 80.44 121.056 80.16 121.009 79.824H120.939C120.781 80.244 120.524 80.5753 120.169 80.818C119.824 81.0513 119.357 81.168 118.769 81.168C118.013 81.168 117.411 80.972 116.963 80.58C116.515 80.188 116.291 79.6513 116.291 78.97C116.291 78.298 116.534 77.78 117.019 77.416C117.514 77.052 118.307 76.87 119.399 76.87H120.939V76.156C120.939 75.624 120.79 75.2273 120.491 74.966C120.193 74.6953 119.768 74.56 119.217 74.56C118.732 74.56 118.335 74.658 118.027 74.854C117.719 75.0407 117.472 75.2973 117.285 75.624L116.529 75.064C116.623 74.8773 116.749 74.6953 116.907 74.518C117.066 74.3407 117.262 74.1867 117.495 74.056C117.729 73.916 117.995 73.8087 118.293 73.734C118.592 73.65 118.923 73.608 119.287 73.608C120.137 73.608 120.809 73.8227 121.303 74.252C121.807 74.6813 122.059 75.2787 122.059 76.044V80.02H123.067V81H122.297ZM118.965 80.23C119.255 80.23 119.516 80.1973 119.749 80.132C119.992 80.0573 120.202 79.964 120.379 79.852C120.557 79.7307 120.692 79.5907 120.785 79.432C120.888 79.264 120.939 79.0867 120.939 78.9V77.71H119.399C118.727 77.71 118.237 77.8033 117.929 77.99C117.621 78.1767 117.467 78.4473 117.467 78.802V79.096C117.467 79.4693 117.598 79.754 117.859 79.95C118.13 80.1367 118.499 80.23 118.965 80.23ZM125.134 81V73.776H126.254V74.952H126.31C126.384 74.7747 126.478 74.6067 126.59 74.448C126.702 74.28 126.837 74.1353 126.996 74.014C127.164 73.8927 127.36 73.7947 127.584 73.72C127.808 73.6453 128.069 73.608 128.368 73.608C129.124 73.608 129.73 73.8507 130.188 74.336C130.645 74.812 130.874 75.4887 130.874 76.366V81H129.754V76.562C129.754 75.8993 129.609 75.4093 129.32 75.092C129.03 74.7653 128.606 74.602 128.046 74.602C127.822 74.602 127.602 74.63 127.388 74.686C127.173 74.742 126.982 74.826 126.814 74.938C126.646 75.05 126.51 75.1947 126.408 75.372C126.305 75.5493 126.254 75.7547 126.254 75.988V81H125.134ZM138.106 79.824H138.05C137.584 80.72 136.842 81.168 135.824 81.168C134.938 81.168 134.242 80.8367 133.738 80.174C133.244 79.5113 132.996 78.5827 132.996 77.388C132.996 76.1933 133.244 75.2647 133.738 74.602C134.242 73.9393 134.938 73.608 135.824 73.608C136.842 73.608 137.584 74.056 138.05 74.952H138.106V70.64H139.226V81H138.106V79.824ZM136.258 80.174C136.51 80.174 136.748 80.1413 136.972 80.076C137.196 80.0107 137.392 79.9173 137.56 79.796C137.728 79.6653 137.859 79.5113 137.952 79.334C138.055 79.1473 138.106 78.9327 138.106 78.69V76.086C138.106 75.8433 138.055 75.6333 137.952 75.456C137.859 75.2693 137.728 75.1153 137.56 74.994C137.392 74.8633 137.196 74.7653 136.972 74.7C136.748 74.6347 136.51 74.602 136.258 74.602C135.605 74.602 135.096 74.8027 134.732 75.204C134.378 75.596 134.2 76.1187 134.2 76.772V78.004C134.2 78.6573 134.378 79.1847 134.732 79.586C135.096 79.978 135.605 80.174 136.258 80.174ZM142.721 77.332V76.156H146.781V77.332H142.721ZM155.483 73.776H156.603L153.019 82.582C152.935 82.7873 152.842 82.9647 152.739 83.114C152.637 83.2727 152.515 83.3987 152.375 83.492C152.235 83.5947 152.067 83.6693 151.871 83.716C151.675 83.772 151.442 83.8 151.171 83.8H150.107V82.848H151.787L152.599 80.86L149.687 73.776H150.835L152.053 76.8L153.131 79.544H153.187L154.265 76.8L155.483 73.776ZM161.54 81.168C161.036 81.168 160.579 81.0793 160.168 80.902C159.767 80.7247 159.421 80.4727 159.132 80.146C158.852 79.81 158.637 79.4133 158.488 78.956C158.339 78.4893 158.264 77.9667 158.264 77.388C158.264 76.8187 158.339 76.3007 158.488 75.834C158.637 75.3673 158.852 74.9707 159.132 74.644C159.421 74.308 159.767 74.0513 160.168 73.874C160.579 73.6967 161.036 73.608 161.54 73.608C162.044 73.608 162.497 73.6967 162.898 73.874C163.309 74.0513 163.654 74.308 163.934 74.644C164.223 74.9707 164.443 75.3673 164.592 75.834C164.741 76.3007 164.816 76.8187 164.816 77.388C164.816 77.9667 164.741 78.4893 164.592 78.956C164.443 79.4133 164.223 79.81 163.934 80.146C163.654 80.4727 163.309 80.7247 162.898 80.902C162.497 81.0793 162.044 81.168 161.54 81.168ZM161.54 80.202C162.165 80.202 162.669 80.0153 163.052 79.642C163.435 79.2687 163.626 78.69 163.626 77.906V76.87C163.626 76.086 163.435 75.5073 163.052 75.134C162.669 74.7607 162.165 74.574 161.54 74.574C160.915 74.574 160.411 74.7607 160.028 75.134C159.645 75.5073 159.454 76.086 159.454 76.87V77.906C159.454 78.69 159.645 79.2687 160.028 79.642C160.411 80.0153 160.915 80.202 161.54 80.202ZM171.642 79.824H171.586C171.512 80.0013 171.418 80.174 171.306 80.342C171.194 80.5007 171.054 80.6407 170.886 80.762C170.728 80.8833 170.536 80.9813 170.312 81.056C170.088 81.1307 169.827 81.168 169.528 81.168C168.772 81.168 168.166 80.93 167.708 80.454C167.251 79.9687 167.022 79.2873 167.022 78.41V73.776H168.142V78.214C168.142 78.8767 168.287 79.3713 168.576 79.698C168.866 80.0153 169.29 80.174 169.85 80.174C170.074 80.174 170.294 80.146 170.508 80.09C170.723 80.034 170.914 79.95 171.082 79.838C171.25 79.726 171.386 79.586 171.488 79.418C171.591 79.2407 171.642 79.0307 171.642 78.788V73.776H172.762V81H171.642V79.824ZM175.207 80.048H177.321V74.728H175.207V73.776H178.441V75.596H178.511C178.66 75.0267 178.94 74.5833 179.351 74.266C179.771 73.9393 180.303 73.776 180.947 73.776H181.955V74.896H180.597C179.953 74.896 179.43 75.0827 179.029 75.456C178.637 75.8293 178.441 76.3193 178.441 76.926V80.048H181.241V81H175.207V80.048ZM184.693 77.332V76.156H188.753V77.332H184.693ZM191.996 80.048H194.11V74.728H191.996V73.776H195.23V75.596H195.3C195.449 75.0267 195.729 74.5833 196.14 74.266C196.56 73.9393 197.092 73.776 197.736 73.776H198.744V74.896H197.386C196.742 74.896 196.219 75.0827 195.818 75.456C195.426 75.8293 195.23 76.3193 195.23 76.926V80.048H198.03V81H191.996V80.048ZM203.639 81.168C203.116 81.168 202.645 81.0793 202.225 80.902C201.814 80.7247 201.459 80.4727 201.16 80.146C200.871 79.81 200.647 79.4133 200.489 78.956C200.33 78.4893 200.251 77.9713 200.251 77.402C200.251 76.8233 200.33 76.3007 200.489 75.834C200.657 75.3673 200.885 74.9707 201.175 74.644C201.464 74.308 201.809 74.0513 202.211 73.874C202.621 73.6967 203.074 73.608 203.569 73.608C204.054 73.608 204.493 73.6967 204.885 73.874C205.286 74.0513 205.627 74.2987 205.907 74.616C206.187 74.924 206.401 75.2927 206.551 75.722C206.7 76.1513 206.775 76.6227 206.775 77.136V77.668H201.427V78.004C201.427 78.3213 201.478 78.6153 201.581 78.886C201.683 79.1567 201.828 79.39 202.015 79.586C202.211 79.782 202.444 79.936 202.715 80.048C202.995 80.1507 203.303 80.202 203.639 80.202C204.124 80.202 204.544 80.09 204.899 79.866C205.253 79.642 205.524 79.334 205.711 78.942L206.537 79.502C206.322 79.9873 205.963 80.3887 205.459 80.706C204.964 81.014 204.357 81.168 203.639 81.168ZM203.569 74.532C203.261 74.532 202.976 74.588 202.715 74.7C202.453 74.812 202.225 74.966 202.029 75.162C201.842 75.358 201.693 75.5913 201.581 75.862C201.478 76.1233 201.427 76.4127 201.427 76.73V76.828H205.571V76.674C205.571 76.3567 205.519 76.0673 205.417 75.806C205.323 75.5447 205.188 75.3207 205.011 75.134C204.843 74.938 204.633 74.7887 204.381 74.686C204.138 74.5833 203.867 74.532 203.569 74.532ZM209.037 73.776H210.157V74.952H210.213C210.68 74.056 211.422 73.608 212.439 73.608C213.326 73.608 214.016 73.9393 214.511 74.602C215.015 75.2647 215.267 76.1933 215.267 77.388C215.267 78.5827 215.015 79.5113 214.511 80.174C214.016 80.8367 213.326 81.168 212.439 81.168C211.422 81.168 210.68 80.72 210.213 79.824H210.157V83.8H209.037V73.776ZM212.005 80.174C212.658 80.174 213.162 79.978 213.517 79.586C213.881 79.1847 214.063 78.6573 214.063 78.004V76.772C214.063 76.1187 213.881 75.596 213.517 75.204C213.162 74.8027 212.658 74.602 212.005 74.602C211.753 74.602 211.515 74.6347 211.291 74.7C211.067 74.7653 210.871 74.8633 210.703 74.994C210.535 75.1153 210.4 75.2693 210.297 75.456C210.204 75.6333 210.157 75.8433 210.157 76.086V78.69C210.157 78.9327 210.204 79.1473 210.297 79.334C210.4 79.5113 210.535 79.6653 210.703 79.796C210.871 79.9173 211.067 80.0107 211.291 80.076C211.515 80.1413 211.753 80.174 212.005 80.174ZM220.302 81.168C219.798 81.168 219.34 81.0793 218.93 80.902C218.528 80.7247 218.183 80.4727 217.894 80.146C217.614 79.81 217.399 79.4133 217.25 78.956C217.1 78.4893 217.026 77.9667 217.026 77.388C217.026 76.8187 217.1 76.3007 217.25 75.834C217.399 75.3673 217.614 74.9707 217.894 74.644C218.183 74.308 218.528 74.0513 218.93 73.874C219.34 73.6967 219.798 73.608 220.302 73.608C220.806 73.608 221.258 73.6967 221.66 73.874C222.07 74.0513 222.416 74.308 222.696 74.644C222.985 74.9707 223.204 75.3673 223.354 75.834C223.503 76.3007 223.578 76.8187 223.578 77.388C223.578 77.9667 223.503 78.4893 223.354 78.956C223.204 79.4133 222.985 79.81 222.696 80.146C222.416 80.4727 222.07 80.7247 221.66 80.902C221.258 81.0793 220.806 81.168 220.302 81.168ZM220.302 80.202C220.927 80.202 221.431 80.0153 221.814 79.642C222.196 79.2687 222.388 78.69 222.388 77.906V76.87C222.388 76.086 222.196 75.5073 221.814 75.134C221.431 74.7607 220.927 74.574 220.302 74.574C219.676 74.574 219.172 74.7607 218.79 75.134C218.407 75.5073 218.216 76.086 218.216 76.87V77.906C218.216 78.69 218.407 79.2687 218.79 79.642C219.172 80.0153 219.676 80.202 220.302 80.202Z" fill="#CBD5E1"/>
<path d="M296 70.1667L297.802 74.0066L301.833 74.6261L298.917 77.6133L299.605 81.8334L296 79.8399L292.395 81.8334L293.083 77.6133L290.167 74.6261L294.197 74.0066L296 70.1667Z" stroke="#CBD5E1" stroke-width="1.5" stroke-linecap="round" stroke-linejoin="round"/>
</g>
<defs>
<filter id="filter0_d_13830_8088" x="74" y="99" width="221" height="32" filterUnits="userSpaceOnUse" color-interpolation-filters="sRGB">
<feFlood flood-opacity="0" result="BackgroundImageFix"/>
<feColorMatrix in="SourceAlpha" type="matrix" values="0 0 0 0 0 0 0 0 0 0 0 0 0 0 0 0 0 0 127 0" result="hardAlpha"/>
<feOffset dy="1"/>
<feGaussianBlur stdDeviation="1"/>
<feComposite in2="hardAlpha" operator="out"/>
<feColorMatrix type="matrix" values="0 0 0 0 0 0 0 0 0 0 0 0 0 0 0 0 0 0 0.05 0"/>
<feBlend mode="normal" in2="BackgroundImageFix" result="effect1_dropShadow_13830_8088"/>
<feBlend mode="normal" in="SourceGraphic" in2="effect1_dropShadow_13830_8088" result="shape"/>
</filter>
<filter id="filter1_d_13830_8088" x="59" y="83" width="251" height="36" filterUnits="userSpaceOnUse" color-interpolation-filters="sRGB">
<feFlood flood-opacity="0" result="BackgroundImageFix"/>
<feColorMatrix in="SourceAlpha" type="matrix" values="0 0 0 0 0 0 0 0 0 0 0 0 0 0 0 0 0 0 127 0" result="hardAlpha"/>
<feOffset dy="1"/>
<feGaussianBlur stdDeviation="1"/>
<feComposite in2="hardAlpha" operator="out"/>
<feColorMatrix type="matrix" values="0 0 0 0 0 0 0 0 0 0 0 0 0 0 0 0 0 0 0.05 0"/>
<feBlend mode="normal" in2="BackgroundImageFix" result="effect1_dropShadow_13830_8088"/>
<feBlend mode="normal" in="SourceGraphic" in2="effect1_dropShadow_13830_8088" result="shape"/>
</filter>
<filter id="filter2_d_13830_8088" x="47" y="49" width="274" height="56" filterUnits="userSpaceOnUse" color-interpolation-filters="sRGB">
<feFlood flood-opacity="0" result="BackgroundImageFix"/>
<feColorMatrix in="SourceAlpha" type="matrix" values="0 0 0 0 0 0 0 0 0 0 0 0 0 0 0 0 0 0 127 0" result="hardAlpha"/>
<feOffset dy="1"/>
<feGaussianBlur stdDeviation="1"/>
<feComposite in2="hardAlpha" operator="out"/>
<feColorMatrix type="matrix" values="0 0 0 0 0 0 0 0 0 0 0 0 0 0 0 0 0 0 0.05 0"/>
<feBlend mode="normal" in2="BackgroundImageFix" result="effect1_dropShadow_13830_8088"/>
<feBlend mode="normal" in="SourceGraphic" in2="effect1_dropShadow_13830_8088" result="shape"/>
</filter>
</defs>
</svg>
