<svg width="369" height="167" viewBox="0 0 369 167" fill="none" xmlns="http://www.w3.org/2000/svg">
<path d="M68.2 24.5H299.8C303.169 24.5 305.665 24.5004 307.641 24.6618C309.611 24.8228 311.02 25.1414 312.221 25.7534C314.385 26.856 316.144 28.6152 317.247 30.7791C317.859 31.9803 318.177 33.389 318.338 35.3591C318.5 37.3351 318.5 39.8314 318.5 43.2V166.5H49.5V43.2C49.5 39.8314 49.5004 37.3351 49.6618 35.3591C49.8228 33.389 50.1414 31.9803 50.7534 30.7791C51.856 28.6152 53.6152 26.856 55.7791 25.7534C56.9803 25.1414 58.389 24.8228 60.3591 24.6618C62.3351 24.5004 64.8314 24.5 68.2 24.5Z" fill="white"/>
<path d="M68.2 24.5H299.8C303.169 24.5 305.665 24.5004 307.641 24.6618C309.611 24.8228 311.02 25.1414 312.221 25.7534C314.385 26.856 316.144 28.6152 317.247 30.7791C317.859 31.9803 318.177 33.389 318.338 35.3591C318.5 37.3351 318.5 39.8314 318.5 43.2V166.5H49.5V43.2C49.5 39.8314 49.5004 37.3351 49.6618 35.3591C49.8228 33.389 50.1414 31.9803 50.7534 30.7791C51.856 28.6152 53.6152 26.856 55.7791 25.7534C56.9803 25.1414 58.389 24.8228 60.3591 24.6618C62.3351 24.5004 64.8314 24.5 68.2 24.5Z" stroke="url(#paint0_linear_13830_8110)"/>
<path d="M65 50C65 48.8954 65.8954 48 67 48H100C101.105 48 102 48.8954 102 50V50C102 51.1046 101.105 52 100 52H67C65.8954 52 65 51.1046 65 50V50Z" fill="#F1F5F9"/>
<path d="M293 50C293 48.8954 293.895 48 295 48H301C302.105 48 303 48.8954 303 50V50C303 51.1046 302.105 52 301 52H295C293.895 52 293 51.1046 293 50V50Z" fill="#F1F5F9"/>
<path d="M265 50C265 48.8954 265.895 48 267 48H273C274.105 48 275 48.8954 275 50V50C275 51.1046 274.105 52 273 52H267C265.895 52 265 51.1046 265 50V50Z" fill="#F1F5F9"/>
<path d="M279 50C279 48.8954 279.895 48 281 48H287C288.105 48 289 48.8954 289 50V50C289 51.1046 288.105 52 287 52H281C279.895 52 279 51.1046 279 50V50Z" fill="#F1F5F9"/>
<path d="M251 50C251 48.8954 251.895 48 253 48H259C260.105 48 261 48.8954 261 50V50C261 51.1046 260.105 52 259 52H253C251.895 52 251 51.1046 251 50V50Z" fill="#F1F5F9"/>
<path d="M136 82C136 80.8954 136.895 80 138 80H230C231.105 80 232 80.8954 232 82V82C232 83.1046 231.105 84 230 84H138C136.895 84 136 83.1046 136 82V82Z" fill="#F1F5F9"/>
<path d="M107 94C107 92.8954 107.895 92 109 92H259C260.105 92 261 92.8954 261 94V94C261 95.1046 260.105 96 259 96H109C107.895 96 107 95.1046 107 94V94Z" fill="#F1F5F9"/>
<defs>
<linearGradient id="paint0_linear_13830_8110" x1="184" y1="83" x2="184" y2="174" gradientUnits="userSpaceOnUse">
<stop stop-color="#E2E8F0"/>
<stop offset="1" stop-color="white" stop-opacity="0"/>
</linearGradient>
</defs>
</svg>
