<svg width="416" height="360" viewBox="0 0 416 360" fill="none" xmlns="http://www.w3.org/2000/svg">
<path fill-rule="evenodd" clip-rule="evenodd" d="M24 16L24 344H25L25 16H24ZM31.5792 344L31.5792 16H32.5792L32.5792 344H31.5792ZM40.2394 16L40.2394 344H41.2394L41.2394 16H40.2394ZM47.8186 93.6692V16H48.8186V93.6692C48.8186 95.7849 50.5337 97.5 52.6494 97.5C54.2088 97.5 55.5956 98.2389 56.4788 99.3856V16H57.4788V102.217C57.4797 102.255 57.4801 102.293 57.4801 102.331L57.4802 118.5L57.4801 159.5V175.669C57.4801 175.707 57.4797 175.745 57.4788 175.783L57.4788 344H56.4788L56.4788 178.614C55.5956 179.761 54.2088 180.5 52.6494 180.5C50.5337 180.5 48.8186 182.215 48.8186 184.331L48.8186 344H47.8186L47.8186 184.331C47.8186 181.663 49.9814 179.5 52.6494 179.5C54.7313 179.5 56.4253 177.839 56.4788 175.77V102.229C56.425 100.16 54.7311 98.5 52.6494 98.5C49.9814 98.5 47.8186 96.3372 47.8186 93.6692ZM64.0619 344L64.0619 16H65.0619L65.0619 344H64.0619ZM72.7143 16V60.7873V60.7894V94.2106V94.2134L72.7143 344H73.7143L73.7143 96.9637C74.5012 97.9028 75.6827 98.5 77.0037 98.5C78.8204 98.5 80.2932 99.9727 80.2932 101.789L80.2932 180V344H81.2932V180L81.2932 101.789C81.2932 99.4204 79.3727 97.5 77.0037 97.5C75.1879 97.5 73.7156 96.0286 73.7143 94.2131V94.2106V60.7894V60.7875C73.7153 58.9717 75.1877 57.5 77.0037 57.5C79.3727 57.5 81.2932 55.5796 81.2932 53.2106V16H80.2932V53.2106C80.2932 55.0273 78.8204 56.5 77.0037 56.5C75.6827 56.5 74.5012 57.0972 73.7143 58.0363V16H72.7143ZM87.8727 344H88.8727V301.613C89.7559 302.76 91.1433 303.5 92.7034 303.5C94.8191 303.5 96.5342 305.215 96.5342 307.331V344H97.5342V307.331C97.5342 304.663 95.3714 302.5 92.7034 302.5C90.5878 302.5 88.8727 300.785 88.8727 298.669L88.8727 266.331L88.8727 266.324C88.8763 264.211 90.59 262.5 92.7034 262.5C95.3714 262.5 97.5342 260.337 97.5342 257.669L97.5342 180V16H96.5342V180L96.5342 257.669C96.5342 259.785 94.8191 261.5 92.7034 261.5C91.1433 261.5 89.7559 262.24 88.8727 263.387L88.8727 16H87.8727L87.8727 266.325L87.8727 266.331L87.8727 298.669L87.8727 344ZM104.108 16H105.108L105.108 344H104.108L104.108 16ZM130.012 16H129.012L129.012 344H130.012L130.012 16ZM153.911 16H154.911V344H153.911V16ZM178.726 16H177.726V344H178.726V16ZM202.63 16H203.63V344H202.63V16ZM228.525 16H227.525V344H228.525V16ZM251.348 16H252.348V344H251.348V16ZM277.24 16H276.24V344H277.24V16ZM301.143 16H302.143V344H301.143V16ZM325.966 16H324.966V344H325.966V16ZM349.858 16H350.858V344H349.858V16ZM375.757 16H374.757V344H375.757V16ZM112.772 16H113.772L113.772 344H112.772L112.772 16ZM137.587 16H136.587L136.587 344H137.587L137.587 16ZM161.494 16H162.494V344H161.494V16ZM187.394 16H186.394V344H187.394V16ZM210.205 16H211.205V344H210.205V16ZM236.105 16H235.105V344H236.105V16ZM260.004 16H261.004V344H260.004V16ZM285.908 16H284.908V344H285.908V16ZM308.722 16H309.722V344H308.722V16ZM334.622 16H333.622V344H334.622V16ZM358.522 16H359.522V344H358.522V16ZM383.336 16H382.336V344H383.336V16ZM120.351 16H121.351L121.351 344H120.351L120.351 16ZM146.247 16H145.247L145.247 344H146.247L146.247 16ZM170.147 16H171.147V344H170.147V16ZM194.969 16H193.969V344H194.969V16ZM218.865 16H219.865V344H218.865V16ZM244.761 16H243.761V344H244.761V16ZM267.583 16H268.583V344H267.583V16ZM293.491 16H292.491V344H293.491V16ZM317.383 16H318.383V344H317.383V16ZM342.197 16H341.197V344H342.197V16ZM366.097 16H367.097V344H366.097V16ZM391.997 16H390.997V344H391.997V16Z" fill="url(#paint0_linear_1051_22940)"/>
<path d="M268 145L268 180" stroke="url(#paint1_linear_1051_22940)" stroke-linecap="round"/>
<path d="M73.1992 182L73.1992 219" stroke="url(#paint2_linear_1051_22940)" stroke-linecap="round"/>
<path d="M129.301 182L129.301 232" stroke="url(#paint3_linear_1051_22940)" stroke-linecap="round"/>
<path d="M40.8008 135L40.8008 158.534" stroke="url(#paint4_linear_1051_22940)" stroke-linecap="round"/>
<path d="M359 100L359 147" stroke="url(#paint5_linear_1051_22940)" stroke-linecap="round"/>
<path d="M334 175L334 217" stroke="url(#paint6_linear_1051_22940)" stroke-linecap="round"/>
<path d="M301.5 79L301.5 93.8636" stroke="url(#paint7_linear_1051_22940)" stroke-linecap="round"/>
<path d="M104.5 102L104.5 137" stroke="url(#paint8_linear_1051_22940)" stroke-linecap="round"/>
<g clip-path="url(#clip0_1051_22940)">
<mask id="mask0_1051_22940" style="mask-type:luminance" maskUnits="userSpaceOnUse" x="186" y="158" width="44" height="44">
<path d="M230 158H186V202H230V158Z" fill="white"/>
</mask>
<g mask="url(#mask0_1051_22940)">
<path d="M186 174.896C186 168.982 186 166.024 187.151 163.765C188.163 161.778 189.78 160.163 191.767 159.15C194.024 158 196.982 158 202.896 158H213.104C219.018 158 221.976 158 224.235 159.151C226.222 160.163 227.837 161.78 228.85 163.767C230.001 166.026 230.001 168.982 230.001 174.897V185.105C230.001 191.019 230.001 193.977 228.85 196.236C227.838 198.223 226.222 199.838 224.235 200.852C221.976 202.003 219.019 202.003 213.104 202.003H202.896C196.982 202.003 194.024 202.003 191.765 200.852C189.778 199.84 188.163 198.223 187.15 196.236C186 193.976 186 191.018 186 185.104V174.896Z" fill="white"/>
<path d="M215.162 171.535C213.894 170.433 212.307 169.728 210.614 169.511L210.503 170.384C212.027 170.579 213.451 171.214 214.586 172.198L215.162 171.533V171.535ZM210.614 169.511C208.922 169.294 207.198 169.574 205.674 170.316L206.06 171.107C207.429 170.441 208.979 170.187 210.503 170.384L210.614 169.511ZM205.674 170.316C204.151 171.058 202.894 172.227 202.077 173.673L202.842 174.107C203.57 172.821 204.692 171.775 206.06 171.108L205.674 170.318V170.316ZM202.525 173.455C202.084 173.387 201.638 173.354 201.191 173.355L201.194 174.235C201.596 174.235 201.996 174.264 202.393 174.324L202.525 173.455ZM201.192 173.355C196.745 173.355 193.039 176.573 193.039 180.637H193.919C193.919 177.155 197.13 174.235 201.192 174.235V173.355ZM193.039 180.637C193.039 184.373 196.181 187.441 200.259 187.866L200.35 186.991C196.632 186.603 193.919 183.839 193.919 180.637H193.039ZM200.259 187.866C200.638 187.906 201.019 187.8 201.321 187.568L200.785 186.87C200.664 186.963 200.509 187.007 200.35 186.991L200.259 187.866ZM201.321 187.568C201.623 187.337 201.821 186.994 201.864 186.615L200.99 186.515C200.975 186.65 200.903 186.779 200.785 186.87L201.321 187.568ZM201.864 186.615C201.907 186.235 201.791 185.858 201.544 185.566L200.871 186.133C200.963 186.244 201.005 186.38 200.99 186.515L201.864 186.615ZM201.544 185.566C201.299 185.275 200.947 185.093 200.569 185.053L200.478 185.929C200.636 185.945 200.777 186.021 200.871 186.133L201.544 185.566ZM200.55 185.052C199.341 184.981 198.208 184.486 197.364 183.664L196.75 184.295C197.747 185.267 199.083 185.848 200.497 185.93L200.548 185.052H200.55ZM197.364 183.664C196.522 182.844 196.031 181.758 195.98 180.616L195.101 180.656C195.161 182.026 195.751 183.322 196.75 184.295L197.364 183.664ZM195.981 180.636C195.981 178.246 198.269 176.186 201.214 176.186V175.306C197.91 175.306 195.101 177.642 195.101 180.636H195.981ZM201.211 176.186C201.711 176.189 202.207 176.252 202.69 176.375L202.907 175.523C202.355 175.382 201.786 175.309 201.216 175.306L201.211 176.186ZM202.69 176.375C203.03 176.461 203.391 176.426 203.708 176.274L203.326 175.48C203.197 175.542 203.048 175.556 202.907 175.521L202.69 176.373V176.375ZM203.708 176.274C204.024 176.121 204.277 175.86 204.41 175.536L203.598 175.199C203.549 175.317 203.454 175.419 203.325 175.48L203.706 176.274H203.708ZM204.409 175.542C204.869 174.471 205.688 173.571 206.744 172.987L206.317 172.217C205.095 172.893 204.139 173.939 203.599 175.194L204.407 175.542H204.409ZM206.744 172.987C207.8 172.403 209.029 172.168 210.242 172.322L210.353 171.45C208.958 171.272 207.54 171.542 206.318 172.217L206.745 172.987H206.744ZM210.242 172.322C211.453 172.476 212.575 173.01 213.432 173.835L214.042 173.201C213.046 172.242 211.748 171.627 210.352 171.45L210.24 172.322H210.242ZM213.432 173.835C214.288 174.66 214.832 175.73 214.983 176.876L215.856 176.762C215.679 175.413 215.039 174.162 214.042 173.201L213.432 173.835ZM214.983 176.875C215.03 177.25 215.23 177.588 215.529 177.818L216.066 177.12C215.945 177.028 215.874 176.898 215.856 176.764L214.983 176.874V176.875ZM215.529 177.818C215.828 178.048 216.207 178.155 216.582 178.12L216.501 177.245C216.341 177.259 216.185 177.214 216.064 177.121L215.527 177.82H215.529V177.818ZM216.542 178.123C219.042 178.123 220.91 179.769 220.91 181.593H221.79C221.79 179.123 219.351 177.243 216.542 177.243V178.123ZM220.91 181.593C220.91 183.415 219.023 185.063 216.495 185.063V185.943C219.323 185.943 221.79 184.066 221.79 181.593H220.91ZM216.5 185.063C216.306 185.063 216.114 185.097 215.935 185.169L216.261 185.986C216.334 185.957 216.413 185.942 216.493 185.942L216.5 185.062V185.063ZM215.935 185.169C215.756 185.241 215.592 185.346 215.454 185.481L216.07 186.111C216.123 186.058 216.189 186.017 216.261 185.987L215.935 185.17V185.169ZM215.454 185.481C215.316 185.616 215.208 185.778 215.134 185.957L215.95 186.29C215.976 186.225 216.017 186.163 216.07 186.112L215.454 185.483V185.481ZM215.134 185.957C215.061 186.136 215.027 186.326 215.033 186.52L215.913 186.492C215.913 186.423 215.923 186.354 215.95 186.29L215.134 185.957ZM215.033 186.512C215.039 186.894 215.202 187.253 215.479 187.514L216.083 186.873C215.975 186.771 215.916 186.636 215.915 186.498L215.035 186.511L215.033 186.512ZM215.479 187.514C215.756 187.775 216.124 187.918 216.504 187.918V187.038C216.343 187.038 216.192 186.976 216.082 186.873L215.478 187.514H215.479ZM216.504 187.918C220.469 187.918 223.839 185.159 223.839 181.615H222.959C222.959 184.544 220.124 187.038 216.504 187.038V187.918ZM223.839 181.611C223.805 178.305 220.915 175.709 217.33 175.351L217.242 176.227C220.499 176.551 222.931 178.874 222.959 181.62L223.839 181.611ZM217.714 175.684C217.323 174.081 216.431 172.635 215.162 171.532L214.586 172.196C215.721 173.182 216.513 174.471 216.859 175.892L217.714 175.683V175.684ZM202.459 173.887L202.393 174.323L202.693 174.368L202.842 174.104L202.459 173.887ZM200.525 185.49L200.57 185.053H200.55L200.525 185.49ZM195.541 180.637H195.101V180.656L195.541 180.637ZM201.214 175.747L201.217 175.307V175.747H201.214ZM204.005 175.372L203.601 175.199V175.204L204.005 175.373V175.372ZM215.419 176.824L215.856 176.768L215.42 176.824H215.419ZM216.541 177.686V177.246H216.501L216.541 177.686ZM216.495 185.508L216.493 185.948H216.495V185.508ZM215.472 186.508L215.912 186.501V186.495L215.472 186.508ZM223.399 181.618H223.839V181.614L223.399 181.618ZM217.286 175.791L216.859 175.895L216.933 176.197L217.242 176.228L217.286 175.79V175.791Z" fill="#0331FC"/>
<path d="M214.873 171.866C216.074 172.911 216.916 174.279 217.286 175.79C220.706 176.131 223.368 178.591 223.399 181.615C223.399 184.851 220.297 187.478 216.504 187.478C216.233 187.478 215.973 187.375 215.78 187.193C215.586 187.011 215.476 186.763 215.472 186.505C215.467 186.375 215.491 186.244 215.541 186.122C215.59 186.001 215.665 185.889 215.761 185.797C215.856 185.703 215.97 185.63 216.096 185.58C216.223 185.53 216.358 185.503 216.495 185.505C219.172 185.505 221.35 183.742 221.35 181.595C221.35 179.448 219.196 177.685 216.542 177.685C216.274 177.71 216.007 177.633 215.797 177.472C215.588 177.311 215.453 177.077 215.42 176.822C215.256 175.574 214.664 174.413 213.738 173.521C212.813 172.629 211.603 172.054 210.299 171.888C208.995 171.723 207.67 171.975 206.532 172.604C205.394 173.235 204.505 174.207 204.007 175.37C203.914 175.592 203.741 175.772 203.52 175.879C203.297 175.986 203.042 176.011 202.801 175.95C202.283 175.818 201.751 175.749 201.216 175.746C198.092 175.746 195.543 177.944 195.543 180.636C195.598 181.891 196.138 183.082 197.059 183.978C197.98 184.874 199.215 185.413 200.526 185.489C200.795 185.517 201.041 185.646 201.21 185.847C201.378 186.048 201.458 186.306 201.428 186.562C201.399 186.819 201.264 187.055 201.054 187.217C200.843 187.378 200.575 187.454 200.306 187.426C196.408 187.02 193.48 184.103 193.48 180.636C193.48 176.863 196.939 173.794 201.194 173.794C201.618 173.794 202.041 173.824 202.461 173.887C203.234 172.522 204.422 171.413 205.868 170.709C207.314 170.005 208.951 169.738 210.56 169.945C212.169 170.152 213.674 170.821 214.875 171.865H214.873V171.866Z" fill="#0331FC"/>
<path d="M209.992 183.232C210.275 182.176 211.361 181.549 212.417 181.832C213.473 182.115 214.1 183.2 213.817 184.256L212.565 188.932C212.282 189.988 211.196 190.615 210.14 190.332C209.084 190.049 208.457 188.964 208.74 187.908L209.992 183.232Z" fill="#0331FC"/>
<path d="M204.242 184.553C204.526 183.497 205.611 182.869 206.667 183.152C207.723 183.435 208.351 184.52 208.068 185.576L207.498 187.701C207.215 188.757 206.13 189.385 205.074 189.102C204.018 188.819 203.39 187.734 203.673 186.678L204.242 184.553Z" fill="#8198FD"/>
</g>
</g>
<defs>
<linearGradient id="paint0_linear_1051_22940" x1="207.998" y1="16" x2="207.998" y2="344" gradientUnits="userSpaceOnUse">
<stop stop-color="white" stop-opacity="0"/>
<stop offset="0.48488" stop-color="white" stop-opacity="0.08"/>
<stop offset="1" stop-color="white" stop-opacity="0"/>
</linearGradient>
<linearGradient id="paint1_linear_1051_22940" x1="268.5" y1="145" x2="268.5" y2="180" gradientUnits="userSpaceOnUse">
<stop stop-color="#03FC49"/>
<stop offset="1" stop-color="#93FF91" stop-opacity="0"/>
</linearGradient>
<linearGradient id="paint2_linear_1051_22940" x1="73.6992" y1="182" x2="73.6992" y2="219" gradientUnits="userSpaceOnUse">
<stop stop-color="#03FC49"/>
<stop offset="1" stop-color="#93FF91" stop-opacity="0"/>
</linearGradient>
<linearGradient id="paint3_linear_1051_22940" x1="129.801" y1="182" x2="129.801" y2="224.647" gradientUnits="userSpaceOnUse">
<stop stop-color="#0331FC"/>
<stop offset="1" stop-color="#0331FC" stop-opacity="0"/>
</linearGradient>
<linearGradient id="paint4_linear_1051_22940" x1="41.3008" y1="135" x2="41.3008" y2="158.534" gradientUnits="userSpaceOnUse">
<stop stop-color="#FF9F46"/>
<stop offset="1" stop-color="#FFF2E6" stop-opacity="0"/>
</linearGradient>
<linearGradient id="paint5_linear_1051_22940" x1="359.5" y1="100" x2="359.5" y2="147" gradientUnits="userSpaceOnUse">
<stop stop-color="#FF9F46"/>
<stop offset="1" stop-color="#FFF2E6" stop-opacity="0"/>
</linearGradient>
<linearGradient id="paint6_linear_1051_22940" x1="334.5" y1="175" x2="334.5" y2="217" gradientUnits="userSpaceOnUse">
<stop stop-color="#2386E1"/>
<stop offset="1" stop-color="#51B4FC" stop-opacity="0"/>
</linearGradient>
<linearGradient id="paint7_linear_1051_22940" x1="302" y1="79" x2="302" y2="93.8636" gradientUnits="userSpaceOnUse">
<stop stop-color="#7103FC"/>
<stop offset="1" stop-color="#AC03FC" stop-opacity="0"/>
</linearGradient>
<linearGradient id="paint8_linear_1051_22940" x1="105" y1="102" x2="105" y2="137" gradientUnits="userSpaceOnUse">
<stop stop-color="white"/>
<stop offset="1" stop-color="white" stop-opacity="0"/>
</linearGradient>
<clipPath id="clip0_1051_22940">
<rect width="44" height="44" fill="white" transform="translate(186 158)"/>
</clipPath>
</defs>
</svg>
