<svg width="80" height="80" viewBox="0 0 80 80" fill="none" xmlns="http://www.w3.org/2000/svg">
<g clip-path="url(#clip0_4626_88776)">
<rect width="80" height="80" rx="40" fill="white"/>
<rect width="80" height="80" rx="40" fill="url(#paint0_linear_4626_88776)"/>
<path d="M52 0L52 80" stroke="url(#paint1_linear_4626_88776)" stroke-width="1.5"/>
<path d="M40 0L40 80" stroke="url(#paint2_linear_4626_88776)" stroke-width="1.5"/>
<path d="M40 27L40 41" stroke="url(#paint3_linear_4626_88776)" stroke-width="1.5" stroke-linecap="round"/>
<path d="M52 50L52 64" stroke="url(#paint4_linear_4626_88776)" stroke-width="1.5" stroke-linecap="round"/>
<path d="M40 62L40 79" stroke="url(#paint5_linear_4626_88776)" stroke-width="1.5" stroke-linecap="round"/>
<path d="M46 -2.62269e-07L46 6.99999C46 8.65685 44.6569 10 43 10V10C41.3431 10 40 11.3431 40 13L40 17C40 18.6569 41.3431 20 43 20V20C44.6569 20 46 21.3431 46 23L46 40L46 80" stroke="url(#paint6_linear_4626_88776)" stroke-width="1.5"/>
<path d="M58.0001 -2.62271e-07L58.0001 40L58.0001 57C58.0001 58.6568 56.6569 60 55 60V60C53.3432 60 52 61.3432 52 63L52 67C52 68.6568 53.3432 70 55 70V70C56.6569 70 58.0001 71.3432 58.0001 73L58.0001 80" stroke="url(#paint7_linear_4626_88776)" stroke-width="1.5"/>
<path d="M64 0L64 80" stroke="url(#paint8_linear_4626_88776)" stroke-width="1.5"/>
<path d="M70 0L70 80" stroke="url(#paint9_linear_4626_88776)" stroke-width="1.5"/>
<path d="M76 0L76 80" stroke="url(#paint10_linear_4626_88776)" stroke-width="1.5"/>
<path d="M34 0L34 80" stroke="url(#paint11_linear_4626_88776)" stroke-width="1.5"/>
<path d="M28 0L28 80" stroke="url(#paint12_linear_4626_88776)" stroke-width="1.5"/>
<path d="M22 0L22 17C22 18.6568 23.3432 20 25 20V20C26.6569 20 28 21.3431 28.0001 23L28.0001 25L28 35L28 37C28 38.6569 26.6569 40 25 40V40C23.3432 40 22 41.3431 22 43L22 80" stroke="url(#paint13_linear_4626_88776)" stroke-width="1.5"/>
<path d="M16 0L16 80" stroke="url(#paint14_linear_4626_88776)" stroke-width="1.5"/>
<path d="M10 0L10 80" stroke="url(#paint15_linear_4626_88776)" stroke-width="1.5"/>
<path d="M4 0L4 80" stroke="url(#paint16_linear_4626_88776)" stroke-width="1.5"/>
<circle cx="16" cy="29" r="2.25" fill="white" stroke="#E9F0F9" stroke-width="1.5"/>
<circle cx="16" cy="63" r="2.25" fill="white" stroke="url(#paint17_linear_4626_88776)" stroke-width="1.5"/>
<circle cx="64" cy="43" r="2.25" fill="white" stroke="#E9F0F9" stroke-width="1.5"/>
<path d="M28 55L28 69" stroke="url(#paint18_linear_4626_88776)" stroke-width="1.5" stroke-linecap="round"/>
<path d="M28 9L28 25" stroke="url(#paint19_linear_4626_88776)" stroke-width="1.5" stroke-linecap="round"/>
<path d="M52 20L52 31" stroke="url(#paint20_linear_4626_88776)" stroke-width="1.5" stroke-linecap="round"/>
<g filter="url(#filter0_dd_4626_88776)">
<rect x="22" y="22" width="36" height="36" rx="18" fill="white"/>
<path d="M31.4736 34.2014C31.4736 33.4604 32.3142 33.0324 32.9135 33.4682L49.1642 45.2869C49.8743 45.8033 49.509 46.9267 48.631 46.9267H32.3802C31.8795 46.9267 31.4736 46.5208 31.4736 46.0201V34.2014Z" fill="url(#paint21_linear_4626_88776)"/>
<path d="M49.606 34.3073C49.606 33.5471 48.7266 33.1245 48.133 33.5994L33.492 45.3122C32.8228 45.8475 33.2014 46.9267 34.0584 46.9267H48.6994C49.2001 46.9267 49.606 46.5208 49.606 46.0201V34.3073Z" fill="url(#paint22_linear_4626_88776)"/>
</g>
</g>
<rect x="0.5" y="0.5" width="79" height="79" rx="39.5" stroke="#E9F0F9"/>
<defs>
<filter id="filter0_dd_4626_88776" x="19.1579" y="20.1053" width="41.6842" height="41.6842" filterUnits="userSpaceOnUse" color-interpolation-filters="sRGB">
<feFlood flood-opacity="0" result="BackgroundImageFix"/>
<feColorMatrix in="SourceAlpha" type="matrix" values="0 0 0 0 0 0 0 0 0 0 0 0 0 0 0 0 0 0 127 0" result="hardAlpha"/>
<feMorphology radius="0.947368" operator="erode" in="SourceAlpha" result="effect1_dropShadow_4626_88776"/>
<feOffset dy="0.947368"/>
<feGaussianBlur stdDeviation="0.947368"/>
<feComposite in2="hardAlpha" operator="out"/>
<feColorMatrix type="matrix" values="0 0 0 0 0 0 0 0 0 0 0 0 0 0 0 0 0 0 0.1 0"/>
<feBlend mode="normal" in2="BackgroundImageFix" result="effect1_dropShadow_4626_88776"/>
<feColorMatrix in="SourceAlpha" type="matrix" values="0 0 0 0 0 0 0 0 0 0 0 0 0 0 0 0 0 0 127 0" result="hardAlpha"/>
<feOffset dy="0.947368"/>
<feGaussianBlur stdDeviation="1.42105"/>
<feComposite in2="hardAlpha" operator="out"/>
<feColorMatrix type="matrix" values="0 0 0 0 0 0 0 0 0 0 0 0 0 0 0 0 0 0 0.1 0"/>
<feBlend mode="normal" in2="effect1_dropShadow_4626_88776" result="effect2_dropShadow_4626_88776"/>
<feBlend mode="normal" in="SourceGraphic" in2="effect2_dropShadow_4626_88776" result="shape"/>
</filter>
<linearGradient id="paint0_linear_4626_88776" x1="40" y1="0" x2="40" y2="80" gradientUnits="userSpaceOnUse">
<stop stop-color="#F8FAFC"/>
<stop offset="1" stop-color="white"/>
</linearGradient>
<linearGradient id="paint1_linear_4626_88776" x1="52.5" y1="-2.18557e-08" x2="52.5" y2="80" gradientUnits="userSpaceOnUse">
<stop stop-color="#E2E8F0" stop-opacity="0"/>
<stop offset="0.48488" stop-color="#E2E8F0"/>
<stop offset="1" stop-color="#E2E8F0" stop-opacity="0"/>
</linearGradient>
<linearGradient id="paint2_linear_4626_88776" x1="40.5" y1="-2.18557e-08" x2="40.5" y2="80" gradientUnits="userSpaceOnUse">
<stop stop-color="#E2E8F0" stop-opacity="0"/>
<stop offset="0.48488" stop-color="#E2E8F0"/>
<stop offset="1" stop-color="#E2E8F0" stop-opacity="0"/>
</linearGradient>
<linearGradient id="paint3_linear_4626_88776" x1="40.5" y1="27" x2="40.5" y2="41" gradientUnits="userSpaceOnUse">
<stop stop-color="#0331FC"/>
<stop offset="1" stop-color="#0331FC" stop-opacity="0"/>
</linearGradient>
<linearGradient id="paint4_linear_4626_88776" x1="52.5" y1="50" x2="52.5" y2="64" gradientUnits="userSpaceOnUse">
<stop stop-color="#0331FC"/>
<stop offset="1" stop-color="#0331FC" stop-opacity="0"/>
</linearGradient>
<linearGradient id="paint5_linear_4626_88776" x1="40.5" y1="62" x2="40.5" y2="76.5" gradientUnits="userSpaceOnUse">
<stop stop-color="#0331FC"/>
<stop offset="1" stop-color="#0331FC" stop-opacity="0"/>
</linearGradient>
<linearGradient id="paint6_linear_4626_88776" x1="46.5" y1="-2.18556e-08" x2="46.5" y2="80" gradientUnits="userSpaceOnUse">
<stop stop-color="#E2E8F0" stop-opacity="0"/>
<stop offset="0.48488" stop-color="#E2E8F0"/>
<stop offset="1" stop-color="#E2E8F0" stop-opacity="0"/>
</linearGradient>
<linearGradient id="paint7_linear_4626_88776" x1="58.5" y1="-2.18559e-08" x2="58.5" y2="80" gradientUnits="userSpaceOnUse">
<stop stop-color="#E2E8F0" stop-opacity="0"/>
<stop offset="0.48488" stop-color="#E2E8F0"/>
<stop offset="1" stop-color="#E2E8F0" stop-opacity="0"/>
</linearGradient>
<linearGradient id="paint8_linear_4626_88776" x1="64.5" y1="-2.18557e-08" x2="64.5" y2="80" gradientUnits="userSpaceOnUse">
<stop stop-color="#E2E8F0" stop-opacity="0"/>
<stop offset="0.48488" stop-color="#E2E8F0"/>
<stop offset="1" stop-color="#E2E8F0" stop-opacity="0"/>
</linearGradient>
<linearGradient id="paint9_linear_4626_88776" x1="70.5" y1="-2.18557e-08" x2="70.5" y2="80" gradientUnits="userSpaceOnUse">
<stop stop-color="#E2E8F0" stop-opacity="0"/>
<stop offset="0.48488" stop-color="#E2E8F0"/>
<stop offset="1" stop-color="#E2E8F0" stop-opacity="0"/>
</linearGradient>
<linearGradient id="paint10_linear_4626_88776" x1="76.5" y1="-2.18557e-08" x2="76.5" y2="80" gradientUnits="userSpaceOnUse">
<stop stop-color="#E2E8F0" stop-opacity="0"/>
<stop offset="0.48488" stop-color="#E2E8F0"/>
<stop offset="1" stop-color="#E2E8F0" stop-opacity="0"/>
</linearGradient>
<linearGradient id="paint11_linear_4626_88776" x1="34.5" y1="-2.18557e-08" x2="34.5" y2="80" gradientUnits="userSpaceOnUse">
<stop stop-color="#E2E8F0" stop-opacity="0"/>
<stop offset="0.48488" stop-color="#E2E8F0"/>
<stop offset="1" stop-color="#E2E8F0" stop-opacity="0"/>
</linearGradient>
<linearGradient id="paint12_linear_4626_88776" x1="28.5" y1="-2.18557e-08" x2="28.5" y2="80" gradientUnits="userSpaceOnUse">
<stop stop-color="#E2E8F0" stop-opacity="0"/>
<stop offset="0.48488" stop-color="#E2E8F0"/>
<stop offset="1" stop-color="#E2E8F0" stop-opacity="0"/>
</linearGradient>
<linearGradient id="paint13_linear_4626_88776" x1="22.5" y1="-2.18528e-08" x2="22.5" y2="80" gradientUnits="userSpaceOnUse">
<stop stop-color="#E2E8F0" stop-opacity="0"/>
<stop offset="0.48488" stop-color="#E2E8F0"/>
<stop offset="1" stop-color="#E2E8F0" stop-opacity="0"/>
</linearGradient>
<linearGradient id="paint14_linear_4626_88776" x1="16.5" y1="-2.18557e-08" x2="16.5" y2="80" gradientUnits="userSpaceOnUse">
<stop stop-color="#E2E8F0" stop-opacity="0"/>
<stop offset="0.48488" stop-color="#E2E8F0"/>
<stop offset="1" stop-color="#E2E8F0" stop-opacity="0"/>
</linearGradient>
<linearGradient id="paint15_linear_4626_88776" x1="10.5" y1="-2.18557e-08" x2="10.5" y2="80" gradientUnits="userSpaceOnUse">
<stop stop-color="#E2E8F0" stop-opacity="0"/>
<stop offset="0.48488" stop-color="#E2E8F0"/>
<stop offset="1" stop-color="#E2E8F0" stop-opacity="0"/>
</linearGradient>
<linearGradient id="paint16_linear_4626_88776" x1="4.5" y1="-2.18557e-08" x2="4.5" y2="80" gradientUnits="userSpaceOnUse">
<stop stop-color="#E2E8F0" stop-opacity="0"/>
<stop offset="0.48488" stop-color="#E2E8F0"/>
<stop offset="1" stop-color="#E2E8F0" stop-opacity="0"/>
</linearGradient>
<linearGradient id="paint17_linear_4626_88776" x1="16" y1="60" x2="16" y2="66" gradientUnits="userSpaceOnUse">
<stop stop-color="#E2E8F0"/>
<stop offset="1" stop-color="#E2E8F0" stop-opacity="0.3"/>
</linearGradient>
<linearGradient id="paint18_linear_4626_88776" x1="28.5" y1="55" x2="28.5" y2="69" gradientUnits="userSpaceOnUse">
<stop stop-color="#0331FC"/>
<stop offset="1" stop-color="#0331FC" stop-opacity="0"/>
</linearGradient>
<linearGradient id="paint19_linear_4626_88776" x1="28.5" y1="9" x2="28.5" y2="25" gradientUnits="userSpaceOnUse">
<stop stop-color="#0331FC"/>
<stop offset="1" stop-color="#0331FC" stop-opacity="0"/>
</linearGradient>
<linearGradient id="paint20_linear_4626_88776" x1="52.5" y1="20" x2="52.5" y2="31" gradientUnits="userSpaceOnUse">
<stop stop-color="#0331FC"/>
<stop offset="1" stop-color="#0331FC" stop-opacity="0"/>
</linearGradient>
<linearGradient id="paint21_linear_4626_88776" x1="31.9473" y1="32.8947" x2="41.4463" y2="46.9267" gradientUnits="userSpaceOnUse">
<stop stop-color="#0331FC" stop-opacity="0"/>
<stop offset="1" stop-color="#0331FC"/>
</linearGradient>
<linearGradient id="paint22_linear_4626_88776" x1="49.4737" y1="32.421" x2="45.2105" y2="45.6842" gradientUnits="userSpaceOnUse">
<stop stop-color="#0331FC"/>
<stop offset="1" stop-color="#0331FC" stop-opacity="0"/>
</linearGradient>
<clipPath id="clip0_4626_88776">
<rect width="80" height="80" rx="40" fill="white"/>
</clipPath>
</defs>
</svg>
