<svg width="80" height="80" viewBox="0 0 80 80" fill="none" xmlns="http://www.w3.org/2000/svg">
<g clip-path="url(#clip0_5026_109131)">
<rect width="80" height="80" rx="40" fill="white"/>
<rect width="80" height="80" rx="40" fill="url(#paint0_linear_5026_109131)"/>
<path fill-rule="evenodd" clip-rule="evenodd" d="M31.6973 27C31.7093 27 31.7213 27 31.7334 27L40 27L48.2667 27L48.3028 27C48.6919 27 49.042 27 49.3333 27.0238C49.6453 27.0493 49.9768 27.1069 50.3017 27.2725C50.7721 27.5122 51.1545 27.8946 51.3942 28.365C51.5598 28.6899 51.6175 29.0214 51.6429 29.3334C51.6668 29.6247 51.6667 29.9748 51.6667 30.3639L51.6667 30.4L51.6667 31.3333L51.6667 32C51.6667 32.5523 51.219 33 50.6667 33C50.1144 33 49.6667 32.5523 49.6667 32L49.6667 31.3333L49.6667 30.4C49.6667 29.9635 49.6659 29.6962 49.6496 29.4962C49.642 29.4031 49.6324 29.3467 49.6244 29.3125C49.6205 29.2962 49.6173 29.2862 49.6154 29.2808C49.6135 29.2756 49.6124 29.2734 49.6122 29.273C49.5643 29.1789 49.4878 29.1024 49.3937 29.0545C49.3933 29.0543 49.3911 29.0532 49.3859 29.0513C49.3805 29.0494 49.3705 29.0462 49.3542 29.0424C49.32 29.0343 49.2636 29.0247 49.1705 29.0171C48.9705 29.0008 48.7032 29 48.2667 29L41 29L41 51L46.6667 51C47.219 51 47.6667 51.4477 47.6667 52C47.6667 52.5523 47.219 53 46.6667 53L40 53L33.3334 53C32.7811 53 32.3334 52.5523 32.3334 52C32.3334 51.4477 32.7811 51 33.3334 51L39 51L39 29L31.7334 29C31.2968 29 31.0296 29.0008 30.8296 29.0171C30.7365 29.0247 30.6801 29.0343 30.6459 29.0423C30.6296 29.0462 30.6196 29.0494 30.6142 29.0513C30.609 29.0532 30.6068 29.0543 30.6064 29.0545C30.5123 29.1024 30.4358 29.1789 30.3879 29.273C30.3877 29.2734 30.3866 29.2756 30.3847 29.2808C30.3828 29.2862 30.3796 29.2962 30.3757 29.3125C30.3677 29.3467 30.3581 29.4031 30.3505 29.4962C30.3342 29.6962 30.3334 29.9635 30.3334 30.4L30.3334 31.3333L30.3334 32C30.3334 32.5523 29.8857 33 29.3334 33C28.7811 33 28.3334 32.5523 28.3334 32L28.3334 31.3333L28.3334 30.4C28.3334 30.3879 28.3334 30.3759 28.3334 30.3639C28.3334 29.9748 28.3333 29.6247 28.3571 29.3334C28.3826 29.0214 28.4403 28.6899 28.6059 28.365C28.8455 27.8946 29.228 27.5122 29.6984 27.2725C30.0233 27.1069 30.3548 27.0492 30.6667 27.0238C30.9581 27 31.3082 27 31.6973 27Z" fill="#CBD5E1"/>
<g opacity="0.5">
<path fill-rule="evenodd" clip-rule="evenodd" d="M80 27.4167C73.0504 27.4167 67.4166 33.0504 67.4166 40C67.4166 42.4295 68.1051 44.6981 69.2976 46.6215L69.9595 45.9596L73.6968 42.2223L73.724 42.1951C74.0968 41.8223 74.4183 41.5007 74.7048 41.2575C75.0072 41.0008 75.3357 40.7732 75.7396 40.6419C76.3421 40.4462 76.9911 40.4462 77.5937 40.6419C77.9976 40.7732 78.326 41.0008 78.6284 41.2575C78.9149 41.5007 79.2365 41.8223 79.6092 42.1951L79.6092 42.1951L79.6365 42.2223L82.6666 45.2525L83.6968 44.2223L83.724 44.1951L83.7241 44.195C84.0968 43.8223 84.4183 43.5007 84.7048 43.2575C85.0072 43.0008 85.3357 42.7732 85.7396 42.6419C86.3421 42.4462 86.9911 42.4462 87.5937 42.6419C87.9976 42.7732 88.326 43.0008 88.6284 43.2575C88.9149 43.5007 89.2365 43.8223 89.6092 44.1951L89.6365 44.2223L91.185 45.7708C92.0786 44.0423 92.5833 42.0801 92.5833 40C92.5833 33.0504 86.9495 27.4167 80 27.4167ZM80 52.5834C76.1907 52.5834 72.7768 50.8908 70.4693 48.2166C70.5548 48.1712 70.6351 48.1125 70.7071 48.0405L71.3737 47.3738L75.111 43.6365C75.5187 43.2289 75.7825 42.9662 75.9992 42.7822C76.207 42.6058 76.3048 42.5612 76.3576 42.5441C76.5584 42.4788 76.7748 42.4788 76.9756 42.5441C77.0284 42.5612 77.1263 42.6058 77.3341 42.7822C77.5508 42.9662 77.8146 43.2289 78.2223 43.6365L81.9595 47.3738L85.7707 51.185C84.0422 52.0787 82.08 52.5834 80 52.5834ZM90.1078 47.4962C89.37 48.4894 88.4893 49.3701 87.4961 50.1078C87.4608 50.0556 87.42 50.0059 87.3737 49.9596L84.0808 46.6667L85.111 45.6365C85.5187 45.2289 85.7825 44.9662 85.9992 44.7822C86.207 44.6058 86.3048 44.5612 86.3576 44.5441C86.5584 44.4788 86.7748 44.4788 86.9756 44.5441C87.0284 44.5612 87.1263 44.6058 87.3341 44.7822C87.5508 44.9662 87.8146 45.2289 88.2223 45.6365L89.9595 47.3738C90.0058 47.4201 90.0555 47.4609 90.1078 47.4962ZM65.9166 40C65.9166 32.222 72.222 25.9167 80 25.9167C87.778 25.9167 94.0833 32.222 94.0833 40C94.0833 47.778 87.778 54.0834 80 54.0834C72.2219 54.0834 65.9166 47.778 65.9166 40ZM80.75 36C80.75 34.9415 81.6081 34.0834 82.6666 34.0834C83.7252 34.0834 84.5833 34.9415 84.5833 36C84.5833 37.0586 83.7252 37.9167 82.6666 37.9167C81.6081 37.9167 80.75 37.0586 80.75 36ZM82.6666 32.5834C80.7797 32.5834 79.25 34.113 79.25 36C79.25 37.887 80.7797 39.4167 82.6666 39.4167C84.5536 39.4167 86.0833 37.887 86.0833 36C86.0833 34.1131 84.5536 32.5834 82.6666 32.5834Z" fill="#CBD5E1"/>
</g>
<g opacity="0.5">
<path fill-rule="evenodd" clip-rule="evenodd" d="M-5.33337 25.9167L-5.36693 25.9167C-6.73865 25.9167 -7.81409 25.9167 -8.67844 25.9874C-9.55858 26.0593 -10.2857 26.2081 -10.9438 26.5435C-12.0258 27.0947 -12.9054 27.9744 -13.4567 29.0563C-13.792 29.7144 -13.9409 30.4415 -14.0128 31.3217C-14.0834 32.186 -14.0834 33.2615 -14.0834 34.6332L-14.0834 34.6667L-14.0834 45.3334L-14.0834 45.367C-14.0834 46.7387 -14.0834 47.8141 -14.0128 48.6785C-13.9409 49.5586 -13.792 50.2857 -13.4567 50.9439C-12.9054 52.0258 -12.0258 52.9054 -10.9438 53.4567C-10.2857 53.792 -9.55858 53.9409 -8.67844 54.0128C-7.81413 54.0834 -6.73875 54.0834 -5.36711 54.0834L-5.36706 54.0834L-5.36701 54.0834L-5.36696 54.0834L-5.33338 54.0834L5.33329 54.0834L5.36687 54.0834L5.36691 54.0834L5.36696 54.0834L5.36701 54.0834C6.73866 54.0834 7.81404 54.0834 8.67835 54.0128C9.55849 53.9409 10.2856 53.792 10.9437 53.4567C12.0257 52.9054 12.9053 52.0258 13.4566 50.9439C13.7919 50.2857 13.9408 49.5586 14.0127 48.6785C14.0833 47.8142 14.0833 46.7388 14.0833 45.3671L14.0833 45.3671L14.0833 45.367L14.0833 45.367L14.0833 45.3334L14.0833 34.6668L14.0833 34.6332L14.0833 34.6331L14.0833 34.6331L14.0833 34.633C14.0833 33.2614 14.0833 32.186 14.0127 31.3217C13.9408 30.4415 13.7919 29.7144 13.4566 29.0563C12.9053 27.9744 12.0257 27.0947 10.9437 26.5435C10.2856 26.2081 9.5585 26.0593 8.67836 25.9874C7.81401 25.9167 6.73858 25.9167 5.36686 25.9168L5.3333 25.9168L-5.33337 25.9167ZM-10.2628 27.88C-9.85141 27.6703 -9.34367 27.5467 -8.55629 27.4824C-7.76016 27.4173 -6.74588 27.4167 -5.33337 27.4167L5.3333 27.4168C6.7458 27.4168 7.76008 27.4173 8.55621 27.4824C9.34359 27.5467 9.85133 27.6703 10.2628 27.88C11.0624 28.2874 11.7126 28.9376 12.1201 29.7373C12.3297 30.1487 12.4533 30.6565 12.5177 31.4438C12.5827 32.24 12.5833 33.2542 12.5833 34.6668L12.5833 45.3334C12.5833 46.7459 12.5827 47.7602 12.5177 48.5563C12.4533 49.3437 12.3297 49.8515 12.1201 50.2629C11.7126 51.0626 11.0624 51.7127 10.2627 52.1202C9.85132 52.3298 9.34359 52.4535 8.5562 52.5178C7.76007 52.5828 6.7458 52.5834 5.33329 52.5834L-5.33338 52.5834C-6.74589 52.5834 -7.76016 52.5828 -8.5563 52.5178C-9.34368 52.4535 -9.85141 52.3298 -10.2628 52.1202C-11.0625 51.7127 -11.7127 51.0626 -12.1202 50.2629C-12.3298 49.8514 -12.4534 49.3437 -12.5177 48.5563C-12.5828 47.7602 -12.5834 46.7459 -12.5834 45.3334L-12.5834 34.6667C-12.5834 33.2542 -12.5828 32.24 -12.5177 31.4438C-12.4534 30.6565 -12.3298 30.1487 -12.1202 29.7373C-11.7127 28.9376 -11.0625 28.2874 -10.2628 27.88ZM-3.9596 37.3738C-3.56908 36.9833 -3.56908 36.3502 -3.95961 35.9596C-4.35014 35.5691 -4.9833 35.5691 -5.37382 35.9596L-8.70716 39.293C-8.89469 39.4806 -9.00005 39.7349 -9.00004 40.0002C-9.00004 40.2654 -8.89468 40.5197 -8.70714 40.7073L-5.37381 44.0405C-4.98328 44.4311 -4.35012 44.431 -3.9596 44.0405C-3.56908 43.65 -3.56908 43.0168 -3.95961 42.6263L-6.58583 40.0001L-3.9596 37.3738ZM4.13623 36.1363C4.42913 35.8434 4.904 35.8434 5.19689 36.1363L8.5303 39.4698C8.82318 39.7626 8.82318 40.2375 8.53029 40.5304L5.19689 43.8638C4.904 44.1567 4.42913 44.1567 4.13623 43.8638C3.84334 43.5709 3.84334 43.096 4.13623 42.8031L6.93931 40.0001L4.13622 37.1969C3.84333 36.9041 3.84333 36.4292 4.13623 36.1363ZM2.06873 33.4805C2.14996 33.0743 1.88655 32.6792 1.48038 32.598C1.07421 32.5167 0.679088 32.7802 0.597854 33.1863L-2.06881 46.5197C-2.15005 46.9258 -1.88664 47.321 -1.48047 47.4022C-1.0743 47.4834 -0.679177 47.22 -0.597943 46.8138L2.06873 33.4805Z" fill="#CBD5E1"/>
</g>
</g>
<rect x="0.5" y="0.5" width="79" height="79" rx="39.5" stroke="#E9F0F9"/>
<defs>
<linearGradient id="paint0_linear_5026_109131" x1="40" y1="0" x2="40" y2="80" gradientUnits="userSpaceOnUse">
<stop stop-color="#F8FAFC"/>
<stop offset="1" stop-color="white"/>
</linearGradient>
<clipPath id="clip0_5026_109131">
<rect width="80" height="80" rx="40" fill="white"/>
</clipPath>
</defs>
</svg>
