<svg width="80" height="80" viewBox="0 0 80 80" fill="none" xmlns="http://www.w3.org/2000/svg">
<rect x="0.5" y="0.5" width="79" height="79" rx="39.5" fill="white"/>
<rect x="0.5" y="0.5" width="79" height="79" rx="39.5" fill="url(#paint0_linear_4973_109466)"/>
<path fill-rule="evenodd" clip-rule="evenodd" d="M31.6667 18.6666C31.9428 18.6666 32.1667 18.8905 32.1667 19.1666V23.0236C32.3479 23.0042 32.5338 22.9868 32.7246 22.9712C34.4125 22.8333 36.5294 22.8333 39.3099 22.8333H39.3333H39.5V19.1666C39.5 18.8905 39.7239 18.6666 40 18.6666C40.2761 18.6666 40.5 18.8905 40.5 19.1666V22.8333H40.6667H40.6901C43.4706 22.8333 45.5875 22.8333 47.2754 22.9712C47.4662 22.9868 47.6521 23.0042 47.8333 23.0236V19.1666C47.8333 18.8905 48.0572 18.6666 48.3333 18.6666C48.6095 18.6666 48.8333 18.8905 48.8333 19.1666V23.1602C49.8176 23.328 50.6607 23.584 51.4336 23.9778C53.4093 24.9844 55.0156 26.5907 56.0222 28.5664C56.416 29.3393 56.672 30.1824 56.8398 31.1666H60.8333C61.1095 31.1666 61.3333 31.3905 61.3333 31.6666C61.3333 31.9428 61.1095 32.1666 60.8333 32.1666H56.9764C56.9958 32.3479 57.0132 32.5338 57.0288 32.7246C57.1667 34.4125 57.1667 36.5293 57.1667 39.3097V39.3099V39.3333V39.5H60.8333C61.1095 39.5 61.3333 39.7238 61.3333 40C61.3333 40.2761 61.1095 40.5 60.8333 40.5H57.1667V40.6667V40.6901V40.6903C57.1667 43.4707 57.1667 45.5876 57.0288 47.2754C57.0132 47.4662 56.9958 47.6521 56.9764 47.8333H60.8333C61.1095 47.8333 61.3333 48.0572 61.3333 48.3333C61.3333 48.6095 61.1095 48.8333 60.8333 48.8333H56.8398C56.672 49.8176 56.416 50.6607 56.0222 51.4336C55.0156 53.4093 53.4093 55.0156 51.4336 56.0222C50.6607 56.416 49.8176 56.672 48.8333 56.8398V60.8333C48.8333 61.1094 48.6095 61.3333 48.3333 61.3333C48.0572 61.3333 47.8333 61.1094 47.8333 60.8333V56.9764C47.6521 56.9958 47.4662 57.0132 47.2754 57.0288C45.5875 57.1667 43.4707 57.1667 40.6903 57.1667H40.6901H40.6667H40.5V60.8333C40.5 61.1094 40.2761 61.3333 40 61.3333C39.7239 61.3333 39.5 61.1094 39.5 60.8333V57.1667H39.3333H39.3099H39.3097C36.5293 57.1667 34.4125 57.1667 32.7246 57.0288C32.5338 57.0132 32.3479 56.9958 32.1667 56.9764V60.8333C32.1667 61.1094 31.9428 61.3333 31.6667 61.3333C31.3905 61.3333 31.1667 61.1094 31.1667 60.8333V56.8398C30.1824 56.672 29.3393 56.416 28.5664 56.0222C26.5907 55.0156 24.9844 53.4093 23.9778 51.4336C23.584 50.6607 23.328 49.8176 23.1602 48.8333H19.1667C18.8905 48.8333 18.6667 48.6095 18.6667 48.3333C18.6667 48.0572 18.8905 47.8333 19.1667 47.8333H23.0236C23.0042 47.6521 22.9868 47.4662 22.9712 47.2754C22.8333 45.5875 22.8333 43.4706 22.8333 40.6901V40.6667V40.5H19.1667C18.8905 40.5 18.6667 40.2761 18.6667 40C18.6667 39.7238 18.8905 39.5 19.1667 39.5H22.8333V39.3333V39.3099C22.8333 36.5295 22.8333 34.4125 22.9712 32.7246C22.9868 32.5338 23.0042 32.3479 23.0236 32.1666H19.1667C18.8905 32.1666 18.6667 31.9428 18.6667 31.6666C18.6667 31.3905 18.8905 31.1666 19.1667 31.1666H23.1602C23.328 30.1824 23.584 29.3393 23.9778 28.5664C24.9844 26.5907 26.5907 24.9844 28.5664 23.9778C29.3393 23.584 30.1824 23.328 31.1667 23.1602V19.1666C31.1667 18.8905 31.3905 18.6666 31.6667 18.6666ZM56.1667 39.9966L56.1667 40L56.1667 40.0034V40.6667C56.1667 43.4752 56.1663 45.5515 56.0321 47.1939C55.8984 48.8305 55.6343 49.9923 55.1312 50.9796C54.2204 52.7671 52.7671 54.2204 50.9796 55.1312C49.9923 55.6343 48.8305 55.8984 47.1939 56.0321C45.5515 56.1663 43.4752 56.1667 40.6667 56.1667H40.0071L40 56.1666L39.9929 56.1667H39.3333C36.5248 56.1667 34.4485 56.1663 32.8061 56.0321C31.1695 55.8984 30.0078 55.6343 29.0204 55.1312C27.2329 54.2204 25.7796 52.7671 24.8688 50.9796C24.3657 49.9923 24.1016 48.8305 23.9679 47.1939C23.8337 45.5515 23.8333 43.4752 23.8333 40.6667V39.3333C23.8333 36.5248 23.8337 34.4485 23.9679 32.8061C24.1016 31.1695 24.3657 30.0078 24.8688 29.0204C25.7796 27.2329 27.2329 25.7796 29.0204 24.8688C30.0078 24.3657 31.1695 24.1016 32.8061 23.9679C34.4485 23.8337 36.5248 23.8333 39.3333 23.8333H40.6667C43.4752 23.8333 45.5515 23.8337 47.1939 23.9679C48.8305 24.1016 49.9923 24.3657 50.9796 24.8688C52.7671 25.7796 54.2204 27.2329 55.1312 29.0204C55.6343 30.0078 55.8984 31.1695 56.0321 32.8061C56.1663 34.4485 56.1667 36.5248 56.1667 39.3333V39.9966ZM39.75 33.25H39.7275C38.6964 33.25 37.892 33.25 37.2463 33.3027C36.59 33.3564 36.0539 33.4669 35.5705 33.7132C34.7708 34.1207 34.1207 34.7708 33.7132 35.5705C33.467 36.0538 33.3564 36.59 33.3027 37.2463C33.25 37.892 33.25 38.6964 33.25 39.7274V39.75V40.25V40.2725C33.25 41.3035 33.25 42.108 33.3027 42.7537C33.3564 43.4099 33.467 43.9461 33.7132 44.4294C34.1207 45.2291 34.7708 45.8793 35.5705 46.2868C36.0539 46.533 36.59 46.6436 37.2463 46.6972C37.892 46.75 38.6964 46.75 39.7274 46.75H39.75H40.25H40.2726C41.3036 46.75 42.108 46.75 42.7537 46.6972C43.4099 46.6436 43.9461 46.533 44.4295 46.2868C45.2291 45.8793 45.8793 45.2291 46.2868 44.4294C46.533 43.9461 46.6436 43.4099 46.6972 42.7537C46.75 42.108 46.75 41.3036 46.75 40.2725V40.25V39.75V39.7274C46.75 38.6964 46.75 37.892 46.6972 37.2463C46.6436 36.59 46.533 36.0538 46.2868 35.5705C45.8793 34.7708 45.2291 34.1207 44.4295 33.7132C43.9461 33.4669 43.4099 33.3564 42.7537 33.3027C42.108 33.25 41.3036 33.25 40.2725 33.25H40.25H39.75ZM36.0245 34.6042C36.3434 34.4418 36.7333 34.348 37.3277 34.2994C37.928 34.2504 38.6916 34.25 39.75 34.25H40.25C41.3083 34.25 42.072 34.2504 42.6723 34.2994C43.2667 34.348 43.6566 34.4418 43.9755 34.6042C44.587 34.9158 45.0842 35.413 45.3958 36.0245C45.5582 36.3434 45.652 36.7333 45.7006 37.3277C45.7496 37.9279 45.75 38.6916 45.75 39.75V40.25C45.75 41.3083 45.7496 42.072 45.7006 42.6723C45.652 43.2667 45.5582 43.6566 45.3958 43.9755C45.0842 44.587 44.587 45.0842 43.9755 45.3958C43.6566 45.5582 43.2667 45.652 42.6723 45.7006C42.072 45.7496 41.3083 45.75 40.25 45.75H39.75C38.6916 45.75 37.928 45.7496 37.3277 45.7006C36.7333 45.652 36.3434 45.5582 36.0245 45.3958C35.413 45.0842 34.9158 44.587 34.6042 43.9755C34.4418 43.6566 34.348 43.2667 34.2994 42.6723C34.2504 42.072 34.25 41.3083 34.25 40.25V39.75C34.25 38.6916 34.2504 37.9279 34.2994 37.3277C34.348 36.7333 34.4418 36.3434 34.6042 36.0245C34.9158 35.413 35.413 34.9158 36.0245 34.6042Z" fill="#E2E8F0"/>
<rect x="0.5" y="0.5" width="79" height="79" rx="39.5" stroke="#E9F0F9"/>
<defs>
<linearGradient id="paint0_linear_4973_109466" x1="40" y1="0" x2="40" y2="80" gradientUnits="userSpaceOnUse">
<stop stop-color="#F8FAFC"/>
<stop offset="1" stop-color="white"/>
</linearGradient>
</defs>
</svg>
